<svg width="146" height="99" viewBox="0 0 146 99" fill="none" xmlns="http://www.w3.org/2000/svg">
<g id="arrow">
<path id="Vector" d="M139.687 23.1517C119.553 22.5441 99.428 24.6169 79.8404 29.3158C71.9114 31.2357 75.2953 43.3617 83.1738 41.4923C97.9649 38.0055 113.276 37.303 128.324 39.4208C129.936 39.8174 131.638 39.5835 133.084 38.7666C134.529 37.9496 135.609 36.6113 136.101 35.0251C136.535 33.404 136.312 31.6771 135.479 30.22C134.647 28.7628 133.273 27.6934 131.657 27.2444C114.408 24.6706 96.8288 25.3732 79.8404 29.3158L83.1738 41.4923C101.672 37.0716 120.679 35.1513 139.687 35.783C141.361 35.783 142.967 35.1177 144.151 33.9333C145.334 32.7489 146 31.1424 146 29.4674C146 27.7924 145.334 26.186 144.151 25.0016C142.967 23.8171 141.361 23.1517 139.687 23.1517Z" fill="#604595"/>
<path id="Vector_2" d="M77.921 68.5238C94.6653 70.6591 111.559 71.3858 128.425 70.6963C130.099 70.6963 131.705 70.0309 132.889 68.8465C134.073 67.6621 134.738 66.0556 134.738 64.3806C134.738 62.7056 134.073 61.0991 132.889 59.9147C131.705 58.7303 130.099 58.0649 128.425 58.0649C110.344 58.0649 92.2138 56.4481 74.3354 60.3386C72.7395 60.7987 71.3865 61.8647 70.5655 63.3091C69.7446 64.7535 69.5208 66.4617 69.9416 68.069C70.4344 69.6576 71.5109 71.0001 72.9545 71.8253C74.398 72.6506 76.1009 72.8972 77.7191 72.5153C82.1129 71.808 86.5067 71.2017 90.9005 70.4438C92.5131 70.006 93.8864 68.9464 94.7194 67.4973C95.5525 66.0482 95.7775 64.328 95.3449 62.7133C94.8626 61.1178 93.7876 59.7677 92.341 58.9407C90.8944 58.1137 89.1862 57.8726 87.5674 58.267C83.1736 59.0249 78.7798 59.6312 74.3354 60.3386L77.7191 72.5153C94.3348 68.8775 111.557 70.6458 128.223 70.6963V58.1154C112.479 58.8163 96.7037 58.2418 81.0522 56.3976C79.44 56.0009 77.7374 56.235 76.2919 57.052C74.8464 57.8689 73.7672 59.2071 73.2747 60.7933C73.0521 61.5928 72.9891 62.4285 73.0895 63.2524C73.1898 64.0763 73.4514 64.8722 73.8595 65.5949C74.2676 66.3175 74.8141 66.9526 75.4676 67.4638C76.1212 67.9751 76.8691 68.3525 77.6685 68.5743L77.921 68.5238Z" fill="#604595"/>
<path id="Vector_3" d="M72.1134 17.6944C72.568 16.4818 72.9213 15.1176 73.4768 13.9555L61.9622 12.4397C67.5681 37.0456 61.9622 62.3085 63.5783 87.2176C63.5783 88.8926 64.2433 90.499 65.4272 91.6835C66.6111 92.8679 68.217 93.5333 69.8913 93.5333C71.5655 93.5333 73.1711 92.8679 74.355 91.6835C75.5389 90.499 76.2042 88.8926 76.2042 87.2176C77.3153 69.8368 73.2749 52.6075 74.588 35.2267C74.9921 30.1742 75.4972 24.8691 75.9517 19.6649C76.7562 15.9002 76.6173 11.9948 75.5476 8.29669C74.8553 7.08739 73.7766 6.14592 72.4852 5.62362C71.1937 5.10131 69.7643 5.02845 68.4265 5.41669C67.2736 5.76118 66.2367 6.41356 65.4269 7.30384C64.6171 8.19413 64.0652 9.28859 63.8308 10.4692C62.0127 18.4018 73.9313 21.7869 76.002 13.8544C76.002 13.0965 76.4567 12.9955 75.5476 14.7134L71.7093 17.6944L64.5885 14.764C62.8714 10.7219 63.9822 11.3282 63.7297 12.9955C63.7297 13.7029 63.7297 14.5112 63.7297 15.2691C63.7297 17.4922 63.3762 19.7659 63.1742 21.9891C62.7702 27.0416 62.3157 31.7405 61.9622 36.6415C60.6996 53.5675 64.74 70.342 63.6289 87.167H76.2547C74.5376 60.9948 80.0928 34.9236 74.1839 9.05454C73.822 7.87988 73.1306 6.83385 72.1917 6.04101C71.2528 5.24817 70.1058 4.74187 68.8876 4.58221C67.6694 4.42254 66.431 4.61625 65.3196 5.14038C64.2083 5.66451 63.2709 6.49692 62.6188 7.53868C61.6087 9.71128 60.851 11.985 59.9925 14.2587C59.5438 15.8734 59.7548 17.6002 60.5788 19.0594C61.4028 20.5186 62.7722 21.5906 64.3863 22.0395C66.0003 22.4884 67.7265 22.2776 69.1851 21.4533C70.6436 20.6289 71.7153 19.2585 72.164 17.6438L72.1134 17.6944Z" fill="#604595"/>
<path id="Vector_4" d="M53.8319 1.72935C39.3879 17.948 24.0854 33.3582 8.37881 48.2632C7.67818 48.9546 7.14595 49.7981 6.82339 50.7283C6.50082 51.6584 6.39646 52.6504 6.51853 53.6274C6.64059 54.6043 6.98561 55.5401 7.52712 56.3623C8.06862 57.1844 8.79221 57.8707 9.6414 58.3683C29.0852 72.4144 50.751 83.0248 69.9928 97.3235L75.0432 85.7531C53.4277 76.8606 28.176 70.2924 10.7523 53.9222L11.7119 61.5514C15.4997 53.72 24.0349 48.4149 31.1054 43.9181C39.1859 38.8656 47.6704 34.2172 55.9024 29.2658C57.349 28.4215 58.4012 27.037 58.8274 25.4167C59.2536 23.7964 59.019 22.073 58.1752 20.6258C57.3313 19.1786 55.9475 18.1261 54.3279 17.6997C52.7083 17.2733 50.9855 17.508 49.539 18.3522C40.5998 23.7079 31.4082 28.4573 22.7216 34.3183C14.035 40.1792 5.14659 46.0907 0.803288 55.1853C0.136323 56.4073 -0.125458 57.8096 0.0560924 59.19C0.237643 60.5704 0.852885 61.8573 1.81311 62.8651C21.0044 80.8522 47.9229 88.1278 71.7101 97.9298C73.1781 98.3403 74.7457 98.1964 76.1146 97.5256C77.4836 96.8548 78.5582 95.7039 79.1339 94.2919C79.7166 92.8869 79.7775 91.3197 79.305 89.8739C78.8325 88.4281 77.8583 87.1993 76.5585 86.41C57.3167 72.1113 35.6506 61.501 16.2068 47.4549L17.5199 57.56C33.2265 42.655 48.5291 27.2447 62.9731 11.026C68.3264 4.96295 59.4377 -4.13156 54.0338 2.08306L53.8319 1.72935Z" fill="#604595"/>
</g>
</svg>
