<svg width="93" height="70" viewBox="0 0 93 70" fill="none" xmlns="http://www.w3.org/2000/svg">
<g id="cv">
<path id="Vector" d="M34.7605 3.75695C19.5931 -3.03065 4.04732 13.062 0.670317 28.3899C-2.56112 43.1123 6.28892 61.0213 18.6616 67.4265C22.2978 69.4105 26.4227 70.0542 30.4206 69.2617C34.4186 68.4692 38.0752 66.2828 40.8449 63.0289C41.5282 62.2809 41.9121 61.2664 41.9121 60.2087C41.9121 59.1509 41.5282 58.1364 40.8449 57.3884C40.1616 56.6405 39.2348 56.2203 38.2685 56.2203C37.3021 56.2203 36.3754 56.6405 35.6921 57.3884C34.0928 59.3513 31.9707 60.7149 29.6254 61.2867C27.2801 61.8584 24.8299 61.6095 22.6207 60.5751C17.7702 57.9973 13.772 53.8323 11.1797 48.657C8.27355 43.8154 6.92159 38.053 7.33692 32.2776C8.36769 25.8571 11.366 20.0124 15.8377 15.7069C17.9674 13.2331 20.7135 11.4978 23.7356 10.7161C26.7578 9.9344 29.923 10.1407 32.8391 11.3093C33.7655 11.5834 34.7533 11.4459 35.5875 10.9266C36.4217 10.4074 37.0348 9.54856 37.2933 8.53694C37.5292 7.51936 37.3975 6.44133 36.9258 5.52727C36.454 4.61321 35.6785 3.93347 34.7605 3.62945V3.75695Z"/>
<path id="Vector_2" d="M47.0458 9.87518C49.21 18.8351 51.8045 27.6639 54.8187 36.3246C57.6424 45.0791 61.7528 53.2703 66.9876 60.5751C67.6777 61.309 68.6018 61.7195 69.564 61.7195C70.5261 61.7195 71.4504 61.309 72.1404 60.5751C78.9818 54.2018 82.5625 43.6539 85.3864 34.5719C88.3589 24.9354 90.5889 15.0434 92.0531 4.99958C92.81 -0.00349642 85.794 -2.17038 85.0371 2.86456C83.6188 12.4146 81.5362 21.832 78.8071 31.0347C76.3035 39.3519 73.2176 49.0713 66.9876 54.9666H72.1404C67.4172 48.2457 63.7565 40.7057 61.3107 32.6599C58.3995 24.5021 56.1579 16.153 54.0618 7.77206C53.7834 6.78343 53.1645 5.95212 52.3361 5.45412C51.5076 4.95612 50.5347 4.83047 49.6231 5.10373C48.7116 5.37699 47.9329 6.02777 47.4519 6.91831C46.9709 7.80884 46.8252 8.8692 47.0458 9.87518Z"/>
</g>
</svg>
