<svg width="126" height="138" viewBox="0 0 126 138" fill="none" xmlns="http://www.w3.org/2000/svg" id="favicon">
<path d="M19.275 22.8398C32.6769 13.3249 51.8947 15.098 66.8644 15.7481C84.2616 16.5754 101.558 19.2349 118.955 19.294C120.631 19.294 122.239 18.5157 123.425 17.1303C124.61 15.7449 125.276 13.8659 125.276 11.9067C125.276 9.94742 124.61 8.06843 123.425 6.68303C122.239 5.29764 120.631 4.51931 118.955 4.51931C100.597 4.51931 82.3398 1.5644 64.0323 0.855213C47.4443 0.264224 27.569 -0.385877 12.8523 10.0746C11.4037 11.0699 10.3527 12.6968 9.93065 14.5976C9.5086 16.4983 9.74999 18.5173 10.6017 20.21C11.4534 21.9028 12.8456 23.1308 14.4722 23.624C16.0987 24.1172 17.8264 23.8351 19.275 22.8398Z" fill="rgba(75, 73, 184, 0.81)"/>
<path d="M0.310195 100.082C8.70532 126.144 31.5643 145.587 55.5865 133.886C61.4397 130.978 66.7314 126.721 71.1455 121.37C75.5596 116.019 79.0056 109.683 81.2777 102.741C85.2213 88.7007 86.1419 73.7407 83.9581 59.1854C81.5174 42.7945 79.8292 26.2626 78.9008 9.66076C78.9008 7.70152 78.2347 5.82254 77.0492 4.43715C75.8637 3.05176 74.2557 2.27344 72.5791 2.27344C70.9025 2.27344 69.2946 3.05176 68.1091 4.43715C66.9236 5.82254 66.2575 7.70152 66.2575 9.66076C67.1386 25.7586 68.8272 41.7822 71.3148 57.6488C72.9837 72.4826 74.0458 89.2665 67.5218 102.859C64.7105 109.166 60.3846 114.377 55.0752 117.852C49.7658 121.326 43.7038 122.915 37.6331 122.421C31.854 121.001 26.499 117.821 22.1113 113.202C17.7237 108.584 14.4595 102.691 12.65 96.1221C9.81794 87.3164 -2.5219 91.1577 0.461908 100.082H0.310195Z" fill="rgba(75, 73, 184, 0.81)"/>
</svg>
