<svg width="282" height="117" viewBox="0 0 282 117" fill="none" xmlns="http://www.w3.org/2000/svg">
<g id="home">
<path id="Vector" d="M0.157292 9.71986C0.157292 43.8976 -1.64079 79.3447 6.92186 112.546C7.33136 114.061 8.24142 115.334 9.45971 116.097C10.678 116.86 12.1089 117.053 13.4494 116.634C14.79 116.216 15.9352 115.219 16.6426 113.854C17.3501 112.49 17.5641 110.865 17.2397 109.324C8.97678 77.1965 10.8606 42.8234 10.8606 9.71986C10.8606 8.1012 10.2969 6.54885 9.29326 5.40429C8.28963 4.25972 6.9283 3.6167 5.50895 3.6167C4.0896 3.6167 2.72853 4.25972 1.7249 5.40429C0.721269 6.54885 0.157292 8.1012 0.157292 9.71986Z"/>
<path id="Vector_2" d="M10.4752 68.3103C23.619 68.3103 36.7626 69.0915 49.9064 70.1657C51.3223 70.1529 52.6772 69.5059 53.6785 68.3641C54.6797 67.2223 55.2469 65.6772 55.2581 64.0625C55.2254 62.4556 54.6513 60.9248 53.6547 59.7882C52.658 58.6517 51.3155 57.9966 49.9064 57.9594C36.7626 56.8852 23.619 56.1528 10.4752 56.104C9.05588 56.104 7.69453 56.747 6.69089 57.8916C5.68726 59.0362 5.12354 60.5885 5.12354 62.2072C5.12354 63.8258 5.68726 65.3782 6.69089 66.5227C7.69453 67.6673 9.05588 68.3103 10.4752 68.3103Z"/>
<path id="Vector_3" d="M47.809 9.72111C46.6305 25.9183 47.0614 42.2155 49.0934 58.3023C50.2878 75.4627 53.2335 92.4056 57.8704 108.788C60.2252 116.111 70.7145 112.987 68.1885 105.565C63.652 89.8168 60.7775 73.5082 59.6257 56.9841C57.7009 41.3278 57.3131 25.4754 58.4696 9.72111C59.3259 1.95789 48.6224 2.00672 47.7661 9.72111H47.809Z"/>
<path id="Vector_4" d="M121.876 16.0194C120.651 12.7695 118.63 9.99114 116.056 8.01686C113.482 6.04259 110.464 4.95605 107.363 4.88721C101.606 5.76022 96.3482 9.07196 92.6348 14.164C84.0363 24.6991 79.038 38.4031 78.5489 52.7848C77.5214 70.1666 80.9895 89.6479 93.1914 101.366C95.8078 104.35 99.1567 106.358 102.795 107.126C106.434 107.893 110.191 107.383 113.57 105.663C119.555 101.295 124.078 94.7609 126.415 87.1089C130.605 76.5963 132.556 65.1026 132.109 53.566C131.376 41.7409 128.458 30.2263 123.546 19.7788C120.292 12.8457 111.087 18.9977 114.298 25.9309C117.887 33.1496 120.188 41.1064 121.07 49.3434C121.952 57.5804 121.396 65.9349 119.436 73.9262C117.424 81.6894 111.729 100.731 102.31 93.8468C92.8914 86.9625 89.4664 71.2896 89.4664 58.6439C89.0328 47.9221 91.5638 37.3158 96.7019 28.3233C99.053 23.81 102.424 20.1002 106.463 17.5818C106.956 17.2741 107.508 17.1127 108.069 17.1127C108.63 17.1127 109.182 17.2741 109.675 17.5818C109.246 17.2889 110.574 18.363 110.745 18.6071C111.673 19.7137 112.439 20.9831 113.014 22.3667C116.31 29.2999 125.558 23.1479 122.262 16.2147L121.876 16.0194Z"/>
<path id="Vector_5" d="M135.106 15.0908C143.925 46.6808 136.39 80.8096 144.953 112.741C147.008 120.212 157.326 117.038 155.271 109.519C146.708 77.8313 154.286 43.7024 145.424 11.8683C143.326 4.39806 133.008 7.57172 135.106 15.0908Z"/>
<path id="Vector_6" d="M138.146 17.7781C149.834 29.6426 158.183 44.8272 167.216 59.2307C167.704 60.1291 168.384 60.8706 169.193 61.3848C170.003 61.8991 170.914 62.1689 171.84 62.1689C172.767 62.1689 173.678 61.8991 174.487 61.3848C175.296 60.8706 175.977 60.1291 176.464 59.2307C184.427 43.4601 194.189 28.666 198.385 10.8448L188.58 12.3095C199.712 42.0441 196.244 75.7824 202.495 106.933C203.993 114.599 214.312 111.327 212.813 103.662C206.305 71.2906 209.474 37.2105 197.828 6.01116C195.944 1.12864 189.265 2.78864 188.067 7.47586C184.128 24.2229 174.709 38.1381 167.216 52.9322H176.464C166.916 37.7475 158.054 21.5375 145.681 8.98943C140.543 3.76513 132.837 12.3584 138.146 17.5827V17.7781Z"/>
<path id="Vector_7" d="M232.079 107.42C245.994 100.731 262.049 103.856 276.648 103.904C278.068 103.904 279.429 103.261 280.433 102.117C281.436 100.972 282 99.42 282 97.8013C282 96.1827 281.436 94.6303 280.433 93.4858C279.429 92.3412 278.068 91.6982 276.648 91.6982C261.064 91.6982 244.024 88.5733 229.211 95.653C227.872 96.1392 226.745 97.1843 226.054 98.5788C225.363 99.9733 225.16 101.614 225.486 103.172C225.674 103.945 225.994 104.668 226.427 105.3C226.86 105.932 227.398 106.46 228.01 106.854C228.623 107.249 229.297 107.502 229.996 107.599C230.694 107.696 231.402 107.635 232.079 107.42Z"/>
<path id="Vector_8" d="M239.101 99.4136C242.654 69.5325 237.388 39.9443 237.773 10.0144L233.835 15.9223C246.465 11.0398 260.165 14.4087 273.138 11.8698C279.902 10.5515 277.034 -1.21544 270.312 0.102842C257.254 2.64176 243.81 -0.678279 230.966 4.15542C229.857 4.53705 228.882 5.30963 228.182 6.36231C227.482 7.41498 227.093 8.6935 227.07 10.0144C226.685 38.7236 232.165 67.5307 228.782 96.1911C228.457 97.7491 228.66 99.3899 229.351 100.784C230.041 102.179 231.169 103.224 232.507 103.71C233.881 104.116 235.339 103.895 236.571 103.092C237.803 102.289 238.71 100.969 239.101 99.4136Z"/>
<path id="Vector_9" d="M237.217 58.9363C249.216 60.409 261.285 61.0287 273.352 60.7916C274.771 60.7916 276.132 60.1486 277.136 59.0041C278.14 57.8595 278.703 56.3072 278.703 54.6885C278.703 53.0699 278.14 51.5175 277.136 50.3729C276.132 49.2284 274.771 48.5854 273.352 48.5854C261.285 48.8224 249.216 48.2027 237.217 46.73C235.801 46.7427 234.446 47.3898 233.445 48.5316C232.444 49.6734 231.876 51.2184 231.865 52.8331C231.898 54.4401 232.472 55.9708 233.469 57.1074C234.466 58.244 235.808 58.899 237.217 58.9363Z"/>
</g>
</svg>
