<svg width="1136" height="177" viewBox="0 0 1136 177" fill="none" xmlns="http://www.w3.org/2000/svg">
<g id="julia-machado">
<path id="Vector" d="M19.275 58.8398C32.6769 49.3249 51.8947 51.098 66.8644 51.7481C84.2616 52.5754 101.558 55.2349 118.955 55.294C120.631 55.294 122.239 54.5157 123.425 53.1303C124.61 51.7449 125.276 49.8659 125.276 47.9067C125.276 45.9474 124.61 44.0684 123.425 42.683C122.239 41.2976 120.631 40.5193 118.955 40.5193C100.597 40.5193 82.3398 37.5644 64.0323 36.8552C47.4443 36.2642 27.569 35.6141 12.8523 46.0746C11.4037 47.0699 10.3527 48.6968 9.93065 50.5976C9.5086 52.4983 9.74999 54.5173 10.6017 56.21C11.4534 57.9028 12.8456 59.1308 14.4722 59.624C16.0987 60.1172 17.8264 59.8351 19.275 58.8398Z"/>
<path id="Vector_2" d="M0.310195 136.082C8.70532 162.144 31.5643 181.587 55.5865 169.886C61.4397 166.978 66.7314 162.721 71.1455 157.37C75.5596 152.019 79.0056 145.683 81.2777 138.741C85.2213 124.701 86.1419 109.741 83.9581 95.1854C81.5174 78.7945 79.8292 62.2626 78.9008 45.6608C78.9008 43.7015 78.2347 41.8225 77.0492 40.4372C75.8637 39.0518 74.2557 38.2734 72.5791 38.2734C70.9025 38.2734 69.2946 39.0518 68.1091 40.4372C66.9236 41.8225 66.2575 43.7015 66.2575 45.6608C67.1386 61.7586 68.8272 77.7822 71.3148 93.6488C72.9837 108.483 74.0458 125.267 67.5218 138.859C64.7105 145.166 60.3846 150.377 55.0752 153.852C49.7658 157.326 43.7038 158.915 37.6331 158.421C31.854 157.001 26.499 153.821 22.1113 149.202C17.7237 144.584 14.4595 138.691 12.65 132.122C9.81794 123.316 -2.5219 127.158 0.461908 136.082H0.310195Z"/>
<path id="Vector_3" d="M120.371 75.1517C121.235 94.3548 123.691 113.415 127.704 132.064C132.356 150.503 141.308 169.591 158.048 175.088C164.348 177.663 171.214 177.636 177.5 175.012C183.785 172.388 189.111 167.325 192.589 160.667C199.568 146.779 200.428 129.05 200.529 113.389C200.63 97.7274 198.86 80.3524 198.81 63.8639C198.81 61.9046 198.144 60.0257 196.958 58.6403C195.773 57.2549 194.165 56.4766 192.488 56.4766C190.812 56.4766 189.204 57.2549 188.018 58.6403C186.833 60.0257 186.166 61.9046 186.166 63.8639C186.166 90.872 191.679 119.712 184.396 146.011C183.284 150.891 181.003 155.299 177.822 158.717C176.497 159.859 175.03 160.755 173.473 161.377C170.976 162.214 168.354 162.415 165.785 161.968C152.029 160.076 144.646 145.893 140.499 131.65C136.085 113.242 133.472 94.3076 132.71 75.2109C132.002 65.8142 119.309 65.696 120.067 75.2109L120.371 75.1517Z"/>
<path id="Vector_4" d="M215.499 59.2534C218.735 92.4669 223.894 125.444 225.613 158.835C225.649 160.446 226.117 162.004 226.952 163.288C227.787 164.571 228.946 165.515 230.266 165.986C251.203 171.895 272.596 166.577 293.786 166.458C295.463 166.458 297.071 165.68 298.256 164.295C299.442 162.909 300.108 161.03 300.108 159.071C300.108 157.112 299.442 155.233 298.256 153.848C297.071 152.462 295.463 151.684 293.786 151.684C273.86 151.684 253.327 157.594 233.654 151.684L238.257 158.776C236.689 125.385 231.53 92.4079 228.142 59.1945C228.091 57.254 227.409 55.4092 226.234 54.0365C225.059 52.6637 223.481 51.8664 221.82 51.8071C220.144 51.8071 218.536 52.5853 217.35 53.9707C216.165 55.3561 215.499 57.2352 215.499 59.1945V59.2534Z"/>
<path id="Vector_5" d="M304.76 50.1525C308.047 84.9616 315.38 119.298 314.47 154.521C314.217 164.035 326.86 164.035 327.113 154.521C328.023 119.061 320.741 84.9616 317.403 50.1525C317.352 48.212 316.67 46.3673 315.495 44.9945C314.321 43.6218 312.742 42.8244 311.081 42.7651C309.409 42.7806 307.809 43.5637 306.626 44.9458C305.443 46.3279 304.773 48.198 304.76 50.1525Z"/>
<path id="Vector_6" d="M307.239 25.8033C308.916 25.8033 310.524 25.025 311.709 23.6396C312.895 22.2543 313.561 20.3753 313.561 18.4161C313.561 16.4569 312.895 14.5779 311.709 13.1925C310.524 11.8071 308.916 11.0288 307.239 11.0288C305.563 11.0288 303.955 11.8071 302.77 13.1925C301.584 14.5779 300.918 16.4569 300.918 18.4161C300.918 20.3753 301.584 22.2543 302.77 23.6396C303.955 25.025 305.563 25.8033 307.239 25.8033Z"/>
<path id="Vector_7" d="M360.137 161.317C362.109 129.995 360.44 96.9586 368.684 66.7593C369.857 61.1847 372.345 56.1066 375.865 52.1027C376.686 51.2924 377.585 50.5981 378.545 50.0342C378.545 50.0342 379.607 50.0342 378.849 50.0342C380.315 50.0342 381.074 51.0981 382.541 53.1075C389.52 62.5633 391.947 76.7469 395.487 88.1529C402.871 111.792 413.188 135.727 413.492 161.553C413.492 163.513 414.158 165.391 415.343 166.777C416.529 168.162 418.137 168.941 419.813 168.941C421.49 168.941 423.098 168.162 424.283 166.777C425.469 165.391 426.135 163.513 426.135 161.553C425.831 134.841 416.02 110.256 408.181 85.7299C403.63 71.5462 400.646 55.6486 392.251 43.7107C390.479 40.7987 388.055 38.5137 385.245 37.1062C382.434 35.6988 379.347 35.2235 376.32 35.7325C372.981 36.8708 369.879 38.8018 367.207 41.405C364.536 44.0082 362.353 47.2276 360.794 50.8617C353.461 66.1682 351.995 85.4343 350.68 102.514C349.011 122.135 348.859 141.873 347.645 161.612C347.038 171.127 359.682 171.068 360.288 161.612L360.137 161.317Z"/>
<path id="Vector_8" d="M367.118 120.835C381.228 115.753 397.108 118.767 412.027 118.826C413.703 118.826 415.311 118.048 416.497 116.662C417.682 115.277 418.348 113.398 418.348 111.439C418.348 109.479 417.682 107.6 416.497 106.215C415.311 104.83 413.703 104.051 412.027 104.051C396.046 104.051 379.306 100.978 363.78 106.592C362.956 106.823 362.181 107.246 361.499 107.834C360.818 108.422 360.245 109.164 359.814 110.016C359.382 110.868 359.102 111.813 358.99 112.794C358.877 113.775 358.934 114.772 359.158 115.727C359.382 116.682 359.768 117.574 360.292 118.351C360.817 119.128 361.47 119.774 362.212 120.251C362.955 120.727 363.772 121.025 364.614 121.125C365.457 121.225 366.308 121.127 367.118 120.835Z"/>
<path id="Vector_9" d="M528.194 43.0611C532.846 80.8842 535.021 119.062 541.798 156.471C543.467 165.809 555.655 161.849 553.986 152.571C547.209 115.161 545.034 76.9246 540.382 39.1606C539.944 37.2736 538.883 35.6666 537.433 34.6918C535.982 33.7169 534.26 33.4537 532.644 33.9599C531.054 34.5365 529.71 35.7966 528.884 37.4858C528.058 39.175 527.811 41.1675 528.194 43.0611Z"/>
<path id="Vector_10" d="M529.861 46.3112C537.07 56.3303 543.822 66.7856 550.091 77.6336C555.907 86.3211 563.088 97.0769 573.708 94.713C584.329 92.3491 591.712 80.2338 597.073 70.3052C602.964 59.1216 608.039 47.3787 612.245 35.2006H600.057C610.728 73.5556 609.464 114.688 609.565 154.521C609.565 156.48 610.231 158.359 611.416 159.744C612.602 161.13 614.21 161.908 615.886 161.908C617.563 161.908 619.171 161.13 620.356 159.744C621.542 158.359 622.208 156.48 622.208 154.521C622.208 113.447 623.27 70.8373 612.093 31.3003C611.695 29.775 610.887 28.4395 609.79 27.4907C608.693 26.5419 607.364 26.0298 605.999 26.0298C604.635 26.0298 603.306 26.5419 602.209 27.4907C601.111 28.4395 600.304 29.775 599.905 31.3003C596.447 41.0428 592.46 50.5177 587.97 59.6676C584.126 67.114 578.766 77.7518 571.382 80.2339C569.561 80.884 567.538 78.3428 565.465 75.8015C562.193 71.6652 559.137 67.3037 556.311 62.7406C551.024 53.2943 545.159 44.3076 538.762 35.8508C537.55 34.6776 536.006 34.0752 534.434 34.1614C532.862 34.2477 531.373 35.0163 530.26 36.317C529.147 37.6178 528.489 39.3569 528.416 41.1944C528.342 43.0318 528.857 44.8354 529.861 46.2522V46.3112Z"/>
<path id="Vector_11" d="M645.22 151.921C648.269 134.419 649.744 116.592 649.62 98.7317C650.277 81.0021 650.581 61.9132 656.498 45.5429C658.116 40.9923 661.555 33.1913 665.298 32.1276C664.235 32.1276 664.893 32.1276 665.298 32.1276C665.876 32.6029 666.418 33.1367 666.916 33.7232C668.468 35.8617 669.777 38.2255 670.81 40.7559C675.798 53.8493 679.989 67.3377 683.352 81.1204C690.938 106.356 694.327 132.95 701.154 158.421C703.582 167.463 715.82 163.563 713.342 154.462C706.515 128.99 703.227 102.396 695.54 77.2199C691.798 61.8086 687.012 46.7697 681.228 32.2457C678.784 25.7377 674.294 20.5756 668.686 17.8258C665.621 17.0556 662.429 17.363 659.513 18.7092C656.597 20.0553 654.087 22.3801 652.3 25.3904C641.528 40.4606 639.354 61.6178 638.039 80.4702C636.521 102.632 638.039 126.035 633.234 147.666C632.851 149.531 633.104 151.498 633.94 153.149C634.775 154.801 636.128 156.008 637.711 156.514C639.295 157.021 640.985 156.788 642.424 155.865C643.863 154.941 644.939 153.399 645.422 151.566L645.22 151.921Z"/>
<path id="Vector_12" d="M648.557 106.946C650.125 106.473 651.743 106.06 653.615 105.705L656.143 105.173H657.61C658.318 105.173 656.851 105.173 658.014 105.173C662.06 104.7 666.106 104.287 670.152 104.228C674.002 104.159 677.852 104.356 681.683 104.819H681.986H683.352L685.678 105.35C687.184 105.75 688.656 106.303 690.078 107.005C690.878 107.266 691.715 107.339 692.539 107.222C693.364 107.105 694.161 106.798 694.884 106.321C695.607 105.843 696.243 105.204 696.755 104.439C697.266 103.674 697.644 102.799 697.866 101.864C698.263 99.9771 698.029 97.9845 697.211 96.293C696.394 94.6015 695.054 93.3387 693.466 92.7624C685.977 89.7624 678.051 88.5367 670.152 89.1573C661.832 89.1978 653.545 90.4083 645.472 92.7624C643.903 93.3276 642.584 94.5841 641.794 96.2658C641.003 97.9475 640.804 99.9226 641.238 101.773C641.671 103.624 642.704 105.204 644.117 106.181C645.531 107.157 647.214 107.453 648.81 107.005L648.557 106.946Z"/>
<path id="Vector_13" d="M782.07 36.9732C776.678 33.2827 770.605 31.1627 764.365 30.7924C758.124 30.4221 751.898 31.8123 746.214 34.8456C736.511 41.3457 729.282 51.9065 725.985 64.3949C718.348 89.7482 721.989 123.848 740.448 141.755C753.446 154.343 770.185 156.175 786.268 152.393C794.258 150.561 790.87 136.318 782.93 138.15C777.025 139.573 770.963 139.873 764.977 139.036C759.96 138.256 755.174 136.088 751.018 132.713C743.752 126.388 738.672 117.223 736.706 106.887C734.354 96.0863 734.354 84.7694 736.706 73.969C737.666 68.8752 739.377 64.0154 741.763 59.6079C742.323 58.4892 742.931 57.4044 743.584 56.3575C743.584 56.3575 744.798 54.5845 743.888 55.8846C744.2 55.3881 744.537 54.9144 744.899 54.4663C745.589 53.5224 746.332 52.634 747.124 51.807L748.288 50.5658C749.552 49.2656 748.287 50.5658 748.995 49.8567C749.703 49.1475 751.018 48.3201 752.03 47.67L753.395 46.9017C754.356 46.3698 752.637 46.9017 754.306 46.488C756.242 45.6116 758.298 45.1513 760.374 45.1288C765.673 45.0616 770.898 46.5879 775.546 49.5612C782.778 53.8754 789.201 41.1101 781.919 36.7959L782.07 36.9732Z"/>
<path id="Vector_14" d="M823.995 25.2127C823.995 23.2034 823.995 21.194 823.995 19.3029H811.352C814.993 61.2038 821.871 103.341 821.062 145.597C821.062 147.556 821.728 149.435 822.913 150.82C824.099 152.206 825.707 152.984 827.383 152.984C829.06 152.984 830.668 152.206 831.853 150.82C833.039 149.435 833.705 147.556 833.705 145.597C834.514 103.341 827.636 61.2038 823.995 19.3029C823.995 17.3436 823.329 15.4645 822.143 14.0791C820.958 12.6937 819.35 11.9155 817.673 11.9155C815.997 11.9155 814.389 12.6937 813.203 14.0791C812.018 15.4645 811.352 17.3436 811.352 19.3029C811.352 21.3713 811.352 23.3807 811.352 25.2127C811.807 34.6685 824.45 34.7276 823.995 25.2127Z"/>
<path id="Vector_15" d="M825.463 87.0301C842.355 88.5075 859.803 87.9165 876.037 93.5899C877.633 94.0377 879.316 93.742 880.729 92.7655C882.143 91.789 883.176 90.2083 883.609 88.3578C884.043 86.5073 883.844 84.5324 883.053 82.8507C882.263 81.169 880.944 79.9124 879.375 79.3471C861.927 73.4372 843.316 73.851 825.312 72.2554C823.635 72.2554 822.027 73.0337 820.842 74.4191C819.656 75.8045 818.99 77.6835 818.99 79.6427C818.99 81.602 819.656 83.4809 820.842 84.8663C822.027 86.2517 823.635 87.0301 825.312 87.0301H825.463Z"/>
<path id="Vector_16" d="M861.825 7.06969C865.011 49.4434 873.153 91.4626 873.507 134.132C873.507 136.091 874.173 137.97 875.359 139.355C876.544 140.741 878.152 141.519 879.829 141.519C881.505 141.519 883.113 140.741 884.299 139.355C885.484 137.97 886.15 136.091 886.15 134.132C885.796 91.4626 877.654 49.4434 874.468 7.06969C873.76 -2.32699 861.117 -2.38609 861.825 7.06969Z"/>
<path id="Vector_17" d="M911.132 147.429C914.217 127.158 914.319 106.415 916.19 86.0256C918.01 67.1141 920.792 44.6567 932.576 30.5322L924.889 31.714C939.656 39.0422 944.764 62.6226 948.152 78.9929C952.047 98.5486 954.317 118.499 954.929 138.564C955.283 148.079 967.926 148.079 967.572 138.564C966.911 116.186 964.284 93.9471 959.733 72.1966C955.536 52.9895 948.354 27.3999 931.261 19.0079C930.048 18.2336 928.658 17.9255 927.287 18.127C925.916 18.3286 924.635 19.0296 923.624 20.1308C910.627 35.9692 906.581 58.5447 904.204 79.5247C901.827 100.505 902.08 122.43 898.843 143.529C897.427 152.866 909.615 156.826 911.032 147.488L911.132 147.429Z"/>
<path id="Vector_18" d="M918.363 98.1402C921.208 97.0262 924.138 96.2344 927.112 95.7761H928.276H930.905C932.726 95.7761 934.547 95.7761 936.367 95.7761C939.748 95.7037 943.129 95.921 946.482 96.4263C944.914 96.4263 947.139 96.4263 947.595 96.4263L949.769 96.9581L951.539 97.5492L952.399 97.9037C953.562 98.3174 951.135 97.1946 952.399 97.9037C953.857 98.8456 955.569 99.0949 957.179 98.5996C958.79 98.1043 960.175 96.9024 961.047 95.2442C961.879 93.5479 962.107 91.5374 961.681 89.6466C961.255 87.7558 960.21 86.1365 958.771 85.1384C951.872 81.896 944.452 80.4441 937.025 80.8833C929.606 80.5997 922.2 81.799 915.127 84.4292C914.303 84.6603 913.527 85.0823 912.846 85.6704C912.165 86.2586 911.591 87.0007 911.16 87.8527C910.729 88.7048 910.449 89.6495 910.336 90.6306C910.224 91.6116 910.281 92.6092 910.505 93.5639C910.729 94.5186 911.114 95.4109 911.639 96.188C912.164 96.9652 912.816 97.6112 913.559 98.0877C914.301 98.5642 915.118 98.8615 915.961 98.9619C916.804 99.0623 917.655 98.9637 918.464 98.6721L918.363 98.1402Z"/>
<path id="Vector_19" d="M968.837 20.367C974.349 61.736 985.526 101.45 990.128 142.819C990.171 144.429 990.642 145.982 991.476 147.264C992.31 148.546 993.465 149.492 994.781 149.97C1007.83 152.452 1021.38 151.27 1032.05 141.401C1040.54 133.01 1045.97 121.153 1047.23 108.247C1048.88 93.5034 1047.51 78.5112 1043.22 64.513C1038.92 50.5147 1031.84 37.9135 1022.55 27.7543C1017.21 22.0022 1010.95 17.5582 1004.12 14.6855C997.292 11.8127 990.041 10.5695 982.795 11.0293C974.703 11.6203 974.653 26.4541 982.795 25.804C1004.74 24.1492 1021.58 42.4698 1029.73 64.9864C1036.45 83.6615 1039.18 111.024 1027.45 126.39C1020.27 135.787 1009.14 137.796 998.22 135.727L1002.87 142.819C998.119 100.15 986.841 58.9584 981.126 16.4665C979.862 7.0698 967.674 11.0885 968.938 20.367H968.837Z"/>
<path id="Vector_20" d="M1104.68 20.3673C1100.35 18.5855 1095.75 17.9371 1091.18 18.4682C1086.62 18.9993 1082.21 20.6968 1078.28 23.4404C1070.88 29.6779 1065.38 38.5221 1062.6 48.6756C1056.08 70.8044 1056.62 94.9374 1064.12 116.639C1070.74 135.137 1087.83 152.512 1106.04 144.475C1124.25 136.437 1131.78 111.734 1134.56 91.6403C1137.85 68.0008 1136.54 36.4422 1119.39 20.0128C1113.12 14.1029 1104.22 24.5042 1110.44 30.4732C1122.28 41.5837 1124.35 62.091 1123.39 79.2887C1122.43 96.4864 1118.03 116.757 1106.7 127.513C1104.73 129.457 1102.35 130.763 1099.82 131.302C1097.28 131.842 1094.66 131.595 1092.23 130.586C1086.22 128.192 1081.24 123.173 1078.33 116.58C1071.01 99.8026 1069.02 80.5382 1072.71 62.2091C1073.98 53.2187 1077.5 44.8691 1082.83 38.2151C1085.34 35.6031 1088.44 33.8781 1091.76 33.24C1095.08 32.6019 1098.49 33.077 1101.59 34.6101C1109.38 37.506 1112.72 23.2041 1104.93 20.3673H1104.68Z"/>
</g>
</svg>
