<svg width="247" height="112" viewBox="0 0 247 112" fill="none" xmlns="http://www.w3.org/2000/svg">
<g id="about">
<path id="Vector" d="M7.9247 12.0924C6.92234 42.0737 6.21236 72.4115 0.114708 101.957C-1.18 108.215 8.88532 110.868 10.18 104.611C16.4447 74.1938 17.3218 42.9846 18.533 12.0924C18.7836 5.71594 8.34238 5.71594 8.09179 12.0924H7.9247Z" fill="#877351"/>
<path id="Vector_2" d="M16.6118 14.9043C16.9496 13.3941 17.4103 11.911 17.9899 10.4684C18.2045 10.1219 18.3997 9.76502 18.5747 9.39908C18.5747 9.39908 18.5747 9.39907 18.1152 9.63671C18.7 9.63671 14.9411 9.91395 15.6511 9.63671C15.2752 9.63671 14.9828 8.96344 15.8599 9.91397C16.7369 10.8645 15.86 9.91395 16.3612 10.508C19.4516 15.4508 21.7859 20.7848 23.2942 26.3502C27.3623 39.3444 30.543 52.5736 32.8167 65.9557C34.59 79.1816 38.3302 92.1026 43.9261 104.333C46.8914 110.076 55.9128 105.046 52.9474 99.3431C43.0908 80.3721 42.9655 57.9158 37.536 37.6774C35.6566 30.7465 33.6101 23.855 31.0207 17.1617C28.9324 11.8942 26.4266 4.44837 21.0389 1.31953C12.6858 -3.59154 8.04986 6.3495 6.54632 12.4091C5.04277 18.4688 14.8994 21.2412 16.6118 15.0231V14.9043Z" fill="#877351"/>
<path id="Vector_3" d="M16.1521 70.0752C19.127 69.2966 22.1554 68.7143 25.2152 68.3325L27.6794 68.0156H28.3476H27.93H29.2247L35.406 67.2236C36.6798 66.8224 37.7418 65.9714 38.3713 64.8472C38.7493 64.26 38.993 63.604 39.0865 62.9217C39.18 62.2394 39.1214 61.5461 38.9143 60.8867C38.5262 59.6444 37.6621 58.5848 36.4918 57.9162C35.199 57.3061 33.7236 57.1382 32.3153 57.441H31.1042C30.7283 57.441 29.1829 57.6786 30.8953 57.441L28.3058 57.7578L22.1663 58.5499C19.1059 58.9284 16.0774 59.5107 13.1033 60.2926C11.7758 60.6449 10.6471 61.4771 9.95978 62.6102C9.27249 63.7434 9.0815 65.087 9.4279 66.3523C9.80855 67.6141 10.6942 68.6849 11.8959 69.3361C13.0976 69.9873 14.52 70.1672 15.8597 69.8376L16.1521 70.0752Z" fill="#877351"/>
<path id="Vector_4" d="M50.6083 16.6867C54.2 31.0635 57.1653 45.5987 59.3788 60.2527C60.5276 67.6577 61.2803 75.1131 61.6342 82.5902C62.1685 88.1581 61.6882 93.7716 60.2142 99.1849C58.2095 105.284 68.2748 107.898 70.2795 101.838C74.4559 88.8082 71.6576 73.1245 69.7782 59.9359C67.5647 44.5294 64.4741 29.202 60.6735 14.0728C59.1283 7.89431 49.063 10.5083 50.6083 16.7264V16.6867Z" fill="#877351"/>
<path id="Vector_5" d="M65.4767 16.6865C66.1449 14.7855 67.565 14.5083 69.9874 14.9044C73.6173 15.6514 76.8463 17.6037 79.0921 20.4094C87.1527 30.3504 74.498 39.7369 66.1868 44.1727C65.2253 44.7388 64.4819 45.5836 64.0668 46.582C63.6517 47.5803 63.5871 48.679 63.8825 49.7149C64.1779 50.7509 64.8175 51.6689 65.7065 52.3329C66.5956 52.9968 67.6867 53.3713 68.818 53.4007C75.5003 53.2027 83.5192 53.8365 86.568 60.4506C88.633 66.6326 88.8928 73.2296 87.3198 79.5404C86.7915 83.1802 86.0526 86.7898 85.1062 90.3527C84.4958 93.977 83.0715 97.4347 80.9297 100.492C79.8337 101.477 78.4473 102.122 76.9552 102.341C75.463 102.56 73.9358 102.343 72.5768 101.719C71.015 101.197 69.5279 100.492 68.1497 99.6204C67.6858 99.2992 67.2772 98.9117 66.9385 98.4718C66.9385 98.4718 66.4791 100.135 66.9385 98.4718C69.2773 92.4913 59.1702 89.917 56.8732 95.8578C52.6967 106.591 70.3215 112.888 78.6327 111.898C91.1622 110.393 94.3781 96.8084 96.3828 86.9071C98.3875 77.0057 100.183 66.0745 96.0486 56.6484C91.3709 46.0342 79.8856 43.0242 68.6509 43.341L71.2821 52.5691C79.635 47.9352 88.6981 41.44 91.2875 31.9743C92.1419 28.6152 92.1085 25.1081 91.1905 21.7641C90.2725 18.4202 88.4982 15.3427 86.0251 12.8051C78.0062 4.09195 60.2144 -0.0269389 55.2444 13.7558C53.0726 19.8154 63.138 22.3897 65.3097 16.4093L65.4767 16.6865Z" fill="#877351"/>
<path id="Vector_6" d="M108.328 26.1916C107.361 31.1678 106.914 36.222 106.991 41.2813C106.991 48.9647 106.991 56.6878 107.659 64.3316C108.165 72.5291 109.366 80.6745 111.251 88.6889C112.332 94.8412 115.146 100.602 119.395 105.363C121.517 107.343 124.313 108.542 127.282 108.746C130.252 108.949 133.2 108.143 135.6 106.472C142.297 101.795 146.913 94.9173 148.547 87.184C152.078 69.6857 149.127 51.5679 140.194 35.895C136.561 29.2413 131.298 21.9935 123.488 19.1419C115.678 16.2903 108.495 20.33 103.942 26.5481C100.1 31.776 109.163 36.7267 112.964 31.5384C113.661 30.6043 114.474 29.7534 115.386 29.0037C114.718 29.5186 115.804 28.766 116.012 28.6076L116.764 28.2115C117.474 27.8551 115.636 28.6472 116.764 28.2115C117.224 28.0135 118.644 27.9739 117.349 28.0136C117.792 27.9545 118.242 27.9545 118.685 28.0136C117.808 28.0136 120.523 28.6867 120.147 28.5283C124.537 31.3252 128.044 35.1989 130.296 39.7367C137.668 52.3948 140.704 66.9147 138.983 81.2827C138.33 87.3024 135.461 92.9114 130.881 97.1249C130.243 97.7274 129.493 98.2112 128.667 98.5508C128.667 98.5508 129.168 98.3527 128.124 98.5508C127.08 98.7488 128.959 98.7884 127.707 98.5508C126.454 98.3131 128.834 98.7884 127.707 98.5508C126.579 98.3131 128.625 98.9864 127.498 98.5508C126.37 98.1151 126.537 97.9171 127.289 98.5508C126.869 98.2253 126.478 97.8676 126.119 97.4813C125.326 96.6496 126.412 98.0358 125.744 97.0061C125.455 96.6114 125.19 96.2015 124.95 95.7783L124.073 94.2338C123.861 93.8375 123.68 93.427 123.53 93.0059C122.473 90.3486 121.621 87.6218 120.982 84.8472C119.472 78.2059 118.481 71.4679 118.017 64.6881C117.391 57.163 117.182 49.5984 117.265 42.0734C117.265 39.0634 117.265 36.0534 117.683 33.083C117.683 32.0137 117.683 30.9839 117.975 29.9145C118.268 28.8452 117.975 30.9047 117.975 29.5977L118.226 28.4888C119.688 22.2708 109.664 19.6171 108.161 25.8352L108.328 26.1916Z" fill="#877351"/>
<path id="Vector_7" d="M146.96 15.1417C153.81 37.9544 147.587 63.6583 160.074 85.1245C164.919 93.5209 176.321 104.373 186.386 95.9763C195.073 88.7286 195.825 75.3023 195.616 65.2029C195.282 45.4002 192.526 25.9144 192.484 6.23047C192.484 4.91747 191.934 3.65825 190.955 2.72982C189.976 1.80138 188.648 1.27979 187.263 1.27979C185.879 1.27979 184.551 1.80138 183.572 2.72982C182.593 3.65825 182.043 4.91747 182.043 6.23047C182.043 21.439 183.672 36.5682 184.632 51.6975C185.259 62.3513 187.096 74.9062 182.084 84.966C181.04 87.0255 179.704 89.6395 177.114 88.9266C172.938 87.5404 169.597 81.5997 167.843 77.9956C163.84 68.2099 161.678 57.8346 161.453 47.3408C161.197 35.6652 159.714 24.043 157.025 12.6465C156.626 11.4178 155.738 10.3846 154.55 9.76569C153.361 9.14675 151.965 8.99059 150.658 9.33021C149.35 9.66982 148.233 10.4787 147.543 11.5855C146.853 12.6922 146.644 14.0102 146.96 15.2605V15.1417Z" fill="#877351"/>
<path id="Vector_8" d="M207.937 15.7356C215.205 15.5376 222.514 14.6663 229.781 14.1514C232.287 13.9534 234.792 13.6365 237.298 13.5177C237.883 13.5177 238.426 13.5177 238.969 13.5177H239.637C238.76 13.5177 239.428 13.5177 239.637 13.5177C239.028 13.3362 238.471 13.0245 238.008 12.6067C237.52 12.0684 237.166 11.4332 236.971 10.7478C236.776 10.0624 236.745 9.34429 236.881 8.64617C236.881 9.00262 237.549 7.41841 236.881 8.17092C236.535 8.73259 236.309 9.35332 236.217 9.9977C236.124 10.6421 236.166 11.2976 236.341 11.9265C236.515 12.5554 236.819 13.1456 237.234 13.6632C237.649 14.1809 238.168 14.6159 238.76 14.9435C239.964 15.5747 241.377 15.7417 242.708 15.4098C244.038 15.0778 245.182 14.2725 245.902 13.1613C246.485 12.3444 246.849 11.4049 246.962 10.4244C247.075 9.44386 246.934 8.45207 246.552 7.53492C246.169 6.61776 245.556 5.80305 244.766 5.16157C243.976 4.52009 243.032 4.07121 242.018 3.85391C239.061 3.35859 236.036 3.35859 233.08 3.85391C229.279 4.21036 225.479 4.36879 221.72 4.72524C217.042 5.1213 212.406 5.63609 207.729 5.75491C206.344 5.75491 205.016 6.27651 204.037 7.20495C203.058 8.13339 202.508 9.39261 202.508 10.7056C202.508 12.0186 203.058 13.278 204.037 14.2064C205.016 15.1349 206.344 15.6563 207.729 15.6563L207.937 15.7356Z" fill="#877351"/>
<path id="Vector_9" d="M217.125 10.7856C220.968 40.0144 220.926 69.5996 225.478 98.7492C226.439 105.046 236.505 102.353 235.544 96.1353C231.368 67.857 231.368 39.1431 227.734 10.7856C226.899 4.56752 216.457 4.48831 217.292 10.7856H217.125Z" fill="#877351"/>
</g>
</svg>
