<svg width="121" height="99" viewBox="0 0 121 99" fill="none" xmlns="http://www.w3.org/2000/svg">
<g id="bio">
<path id="Vector" d="M0.0185042 20.5773C2.01098 44.7178 2.89292 68.8931 5.04872 92.9987C5.53867 98.5535 13.7046 98.5884 13.2146 92.9987C11.0588 68.8931 10.1769 44.7178 8.18439 20.5773C7.7271 15.0225 -0.438786 14.9876 0.0185042 20.5773Z" fill="#7647B2"/>
<path id="Vector_2" d="M8.8699 25.3285C12.7242 16.0007 28.468 19.9833 31.571 28.1233C36.6665 41.3639 21.7719 48.4908 12.1689 51.1808L14.3574 59.6003C17.1121 58.5819 20.0009 58.0394 22.9152 57.9933C24.885 57.9824 26.8342 58.4231 28.6313 59.2859C29.3327 59.6176 29.974 60.0788 30.5258 60.6483C30.8656 60.9594 31.1822 61.2981 31.473 61.6615C32.061 62.3602 31.473 61.6615 31.9956 62.3951C33.0371 63.9684 33.6991 65.7926 33.9228 67.7054C34.3342 71.4853 33.8163 75.3146 32.4203 78.8149C30.8737 82.8936 27.9951 86.233 24.3197 88.2126C21.8294 89.317 19.1503 89.8504 16.4552 89.7782C13.7602 89.706 11.1094 89.0298 8.67393 87.7934C7.7326 87.2366 6.62686 87.0893 5.5866 87.382C4.54635 87.6748 3.65155 88.3852 3.08839 89.3654C2.55106 90.3682 2.40409 91.5568 2.6791 92.6745C2.95411 93.7923 3.62907 94.7495 4.55829 95.3395C11.0428 98.7264 18.4795 99.3872 25.3976 97.1911C30.9556 94.9654 35.5886 90.6915 38.4631 85.1382C43.8525 74.937 43.9179 60.0195 34.1841 52.7878C27.6514 47.9667 19.1915 48.8751 12.0709 51.2158C11.027 51.5262 10.1412 52.2674 9.60824 53.2763C9.07531 54.2853 8.93895 55.4794 9.22916 56.5959C9.51936 57.7124 10.2124 58.6598 11.1557 59.2298C12.099 59.7998 13.2155 59.9457 14.2594 59.6353C22.1364 57.818 29.3857 53.6933 35.1967 47.7222C38.0905 44.4611 39.9384 40.2993 40.4728 35.8397C41.0072 31.3801 40.2004 26.8542 38.1691 22.9179C31.963 10.0267 7.95535 5.86935 1.74928 20.9615C-0.373855 26.0621 6.68145 30.499 8.77192 25.3635L8.8699 25.3285Z" fill="#7647B2"/>
<path id="Vector_3" d="M49.0459 20.4026C56.4606 42.8662 53.3902 67.2861 59.0737 90.2737C59.3861 91.3576 60.0805 92.269 61.01 92.8149C61.9395 93.3609 63.0311 93.4986 64.0539 93.199C65.0767 92.8995 65.9503 92.186 66.49 91.2097C67.0297 90.2334 67.1931 89.0708 66.9457 87.968C61.2622 65.1201 64.3652 40.7351 56.9179 18.0968C55.1867 12.8215 47.3148 15.0924 49.0459 20.4026Z" fill="#7647B2"/>
<path id="Vector_4" d="M46.4006 4.36695V7.05696C46.3706 7.64095 46.4951 8.22221 46.76 8.73391C46.9335 9.26617 47.2248 9.7456 47.6092 10.1313C47.9604 10.5543 48.4117 10.8681 48.9157 11.0397C49.4002 11.3055 49.9392 11.4376 50.4836 11.4239L51.5616 11.2493C52.2547 11.0605 52.8869 10.6741 53.3908 10.1313L54.0114 9.25792C54.3698 8.58729 54.561 7.82938 54.5666 7.05696V4.36695C54.5967 3.78296 54.4722 3.20171 54.2074 2.69C54.0592 2.1534 53.7768 1.67025 53.3908 1.2926C52.5879 0.51979 51.5621 0.0637232 50.4836 0H49.4058C48.7202 0.202831 48.0991 0.601313 47.6092 1.15283L46.956 2.02622C46.5905 2.69369 46.3987 3.45367 46.4006 4.22718V4.36695Z" fill="#7647B2"/>
<path id="Vector_5" d="M117.117 23.442C113.655 10.6206 98.8582 6.81273 89.3531 14.6732C79.848 22.5338 79.2274 37.0669 81.3179 48.7703C82.358 54.4789 84.1622 59.9973 86.6747 65.1551C89.2384 71.0757 93.1597 76.2073 98.0743 80.0727C100.322 81.7302 103.03 82.5222 105.753 82.3191C108.477 82.116 111.056 80.9298 113.067 78.9547C117.148 74.7935 119.727 69.2271 120.351 63.2337C121.216 56.5112 121.216 49.6935 120.351 42.971C119.971 37.2694 118.678 31.6801 116.529 26.4465C114.177 21.4158 107.122 25.8176 109.474 30.8483C109.474 30.8483 109.964 32.0362 109.637 31.1629C109.637 31.4773 109.866 31.8266 109.997 32.1759C110.127 32.5253 110.486 33.8528 110.715 34.6913C111.238 36.7525 111.597 38.8486 111.924 40.9448C112.571 45.44 112.844 49.9878 112.74 54.5347C112.827 58.8122 112.196 63.0719 110.878 67.1115C110.132 69.0663 109.021 70.8377 107.612 72.317C107.159 72.793 106.641 73.1934 106.077 73.5048C105.521 73.665 104.935 73.665 104.378 73.5048C100.883 72.7711 98.0416 68.4741 96.2124 65.4347C93.6832 61.3592 91.7245 56.9104 90.3983 52.229C88.1119 44.2637 86.7074 33.8878 90.3983 26.2019C91.277 24.1748 92.6514 22.4392 94.3762 21.1786C96.1011 19.9179 98.1123 19.1791 100.197 19.0402C102.133 18.9109 104.051 19.4911 105.637 20.6852C107.222 21.8792 108.38 23.6156 108.919 25.608C109.209 26.7245 109.902 27.672 110.845 28.242C111.788 28.812 112.905 28.9579 113.949 28.6475C114.993 28.3371 115.879 27.5958 116.411 26.5868C116.944 25.5779 117.081 24.3839 116.79 23.2674L117.117 23.442Z" fill="#7647B2"/>
</g>
</svg>
