<svg width="804" height="149" viewBox="0 0 804 149" fill="none" xmlns="http://www.w3.org/2000/svg">
<g id="digital-publication">
<path id="Vector" d="M0 52.6298C0 73.766 1.01496 94.9022 1.3871 116.038C1.3871 117.44 1.83266 118.784 2.62574 119.775C3.41882 120.766 4.49445 121.323 5.61604 121.323C6.73762 121.323 7.81325 120.766 8.60633 119.775C9.39941 118.784 9.84497 117.44 9.84497 116.038C9.47282 94.9022 8.4917 73.766 8.45787 52.6298C8.45787 51.2283 8.01231 49.8843 7.21923 48.8934C6.42615 47.9024 5.35052 47.3457 4.22893 47.3457C3.10735 47.3457 2.03171 47.9024 1.23864 48.8934C0.445557 49.8843 0 51.2283 0 52.6298Z" fill="#877351"/>
<path id="Vector_2" d="M6.35894 60.6182C7.73842 59.628 9.2023 58.834 10.7232 58.2509C11.4675 57.9973 12.2455 57.7436 12.9898 57.5745H13.7341H14.6137C15.3684 57.5112 16.1257 57.5112 16.8804 57.5745C16.8804 57.5745 18.0307 57.5745 17.4894 57.5745H18.2336C18.8764 57.5745 19.4854 57.955 20.1282 58.2086L21.0078 58.6314C20.2296 58.2509 21.0078 58.6314 21.3461 58.8427C21.6844 59.0541 22.4625 59.5613 23.0376 59.984L23.8158 60.6604C24.6277 61.3368 23.6127 60.4068 24.154 60.9564C25.2093 62.0707 26.1935 63.2862 27.0974 64.5918C27.3004 64.8877 27.9093 65.8177 27.4019 65.0145L28.0108 66.029L29.2287 68.4385L30.2437 70.7635C30.4467 71.2285 31.2248 73.4267 30.9541 72.539C32.0951 76.123 32.9231 79.8505 33.4238 83.6567C33.4238 83.6567 33.4238 84.1217 33.4238 84.333C33.4238 84.5444 33.4238 83.4876 33.4238 84.333V85.728C33.4238 86.7426 33.4238 87.7148 33.5929 88.7293C33.6774 90.6583 33.6774 92.5917 33.5929 94.5207V95.8734C33.5929 96.1693 33.5929 95.2393 33.5929 96.2538C33.5929 97.2684 33.3223 98.1984 33.1531 99.1284C32.8208 100.915 32.3797 102.667 31.8337 104.37C31.8337 104.666 32.0706 103.778 31.8337 104.708L31.2924 106.061C30.953 106.874 30.5804 107.664 30.1761 108.428C30.0069 108.809 29.8039 109.147 29.6347 109.485C29.4656 109.823 29.6347 109.485 29.4655 109.739C29.0167 110.454 28.5308 111.132 28.0108 111.768C27.7063 112.148 26.1501 113.755 26.8606 113.121C26.2178 113.712 25.5412 114.22 24.8646 114.727L23.7819 115.403C22.9362 115.953 23.9849 115.403 23.3421 115.657C22.5455 116.038 21.7323 116.363 20.9063 116.629L19.4177 117.01C18.7411 117.01 19.7222 117.01 18.7749 117.01C17.7944 117.073 16.8121 117.073 15.8316 117.01C13.7671 116.986 11.7119 116.66 9.70819 116.037C4.39671 114.558 2.13001 124.492 7.47532 126.225C11.4362 127.666 15.5975 128.035 19.6814 127.306C23.7653 126.577 27.6776 124.767 31.1571 121.998C36.9009 116.394 40.6839 108.227 41.7124 99.2129C44.0129 82.008 39.8179 60.1954 27.165 50.5995C23.3187 47.9799 18.9861 46.6784 14.6071 46.8269C10.2281 46.9753 5.95854 48.5686 2.23155 51.445C-2.57247 54.6578 1.69028 63.7886 6.4943 60.5759L6.35894 60.6182Z" fill="#877351"/>
<path id="Vector_3" d="M52.2349 54.3207C54.5015 78.9233 56.9374 103.526 60.625 127.875C61.6399 134.554 69.7931 131.722 68.812 125.085C65.2598 101.666 62.8916 77.9933 60.6926 54.3207C60.6508 52.936 60.1917 51.6221 59.4075 50.6423C58.6234 49.6624 57.5719 49.0889 56.4637 49.0366C55.3449 49.0477 54.2743 49.6079 53.4832 50.5965C52.692 51.5851 52.2437 52.9227 52.2349 54.3207Z" fill="#877351"/>
<path id="Vector_4" d="M55.0766 40.7083C56.1982 40.7083 57.2738 40.1516 58.0669 39.1606C58.8599 38.1696 59.3055 36.8256 59.3055 35.4242C59.3055 34.0228 58.8599 32.6788 58.0669 31.6878C57.2738 30.6969 56.1982 30.1401 55.0766 30.1401C53.955 30.1401 52.8794 30.6969 52.0863 31.6878C51.2932 32.6788 50.8477 34.0228 50.8477 35.4242C50.8477 36.8256 51.2932 38.1696 52.0863 39.1606C52.8794 40.1516 53.955 40.7083 55.0766 40.7083Z" fill="#877351"/>
<path id="Vector_5" d="M118.307 58.2934C118.095 55.3534 117.251 52.5397 115.863 50.1508C114.475 47.7619 112.596 45.8866 110.424 44.7239C108.375 44.0696 106.236 43.9802 104.157 44.462C102.077 44.9438 100.106 45.9852 98.3806 47.5139C94.0098 50.9652 90.2431 55.4858 87.307 60.8036C84.3709 66.1214 82.3262 72.1264 81.2959 78.4574C79.5367 91.1391 84.4084 106.611 90.4303 116.503C91.9186 119.356 93.9481 121.706 96.3385 123.343C98.7289 124.981 101.406 125.854 104.132 125.887C106.448 125.562 108.669 124.558 110.615 122.957C112.561 121.355 114.177 119.202 115.33 116.672C116.693 114.121 117.619 111.246 118.05 108.227C118.481 105.208 118.407 102.11 117.833 99.1286C116.981 95.8707 115.259 93.0771 112.956 91.2151C110.653 89.353 107.908 88.5353 105.181 88.8987L108.158 97.9027C108.896 97.1535 109.716 96.5413 110.594 96.085C110.944 95.9409 111.308 95.8556 111.676 95.8313C112.169 95.9949 112.608 96.3502 112.928 96.8458C115.15 101.183 116.497 106.13 116.852 111.261C118.21 122.051 118.675 132.986 118.24 143.895C118.07 150.701 126.528 150.701 126.697 143.895C127.334 130.271 126.469 116.601 124.126 103.271C123.344 96.9806 120.744 91.2661 116.819 87.2077C111.778 82.9805 106.365 86.2777 102.204 90.4627C99.2602 93.3795 101.73 99.5936 105.181 99.4668C106.454 99.2517 107.75 99.5634 108.868 100.354C109.382 100.907 109.718 101.672 109.815 102.51C110.079 105.485 109.491 108.479 108.158 110.965C107.688 112.1 107.006 113.077 106.17 113.813C105.334 114.549 104.368 115.022 103.354 115.192C99.9706 115.192 97.5348 110.965 95.9447 107.837C92.5616 100.819 88.6711 90.2514 89.3816 81.7546C90.5658 72.9176 94.2517 64.9064 99.7677 59.1811C101.728 56.7316 104.244 55.0936 106.974 54.4889C107.293 54.4006 107.627 54.4434 107.926 54.6109C108.224 54.7784 108.472 55.0618 108.631 55.4189C109.405 57.1334 109.921 59.0102 110.154 60.9566C111.101 67.6356 119.254 64.8033 118.307 58.1666V58.2934Z" fill="#877351"/>
<path id="Vector_6" d="M133.362 47.472C135.629 70.6796 134.208 95.1977 140.399 117.56C142.158 123.985 150.311 121.237 148.552 114.77C142.632 93.2531 143.985 69.7496 141.786 47.472C141.752 46.0841 141.296 44.7645 140.51 43.7826C139.724 42.8007 138.668 42.2304 137.557 42.188C136.438 42.199 135.368 42.7593 134.576 43.7479C133.785 44.7364 133.337 46.074 133.328 47.472H133.362Z" fill="#877351"/>
<path id="Vector_7" d="M133.362 26.8441V28.7041C133.331 29.4107 133.46 30.114 133.734 30.7331C133.895 31.3882 134.2 31.9739 134.613 32.4241C134.977 32.9359 135.445 33.3155 135.967 33.5231C136.469 33.8448 137.027 34.0047 137.591 33.9881L138.707 33.7768C139.409 33.5304 140.049 33.065 140.568 32.4241L141.244 31.3673C141.616 30.5558 141.814 29.6387 141.82 28.7041V26.9709C141.767 25.5851 141.323 24.2674 140.568 23.251C140.214 22.7251 139.743 22.3425 139.214 22.1518C138.719 21.8091 138.156 21.6479 137.591 21.6868H136.474C135.764 21.9323 135.121 22.4145 134.613 23.0818L133.937 24.1387C133.558 24.9463 133.36 25.8659 133.362 26.8018V26.8441Z" fill="#877351"/>
<path id="Vector_8" d="M155.217 52.5456C167.565 46.9656 181.436 48.6143 194.224 50.8547C195.304 51.1726 196.44 50.965 197.401 50.274C198.363 49.5831 199.077 48.4606 199.4 47.1347C199.683 45.7845 199.534 44.3496 198.985 43.1343C198.435 41.919 197.529 41.0189 196.457 40.6248C182.214 38.173 166.787 36.1016 152.95 42.3579C151.888 42.7702 150.992 43.6735 150.445 44.8834C149.898 46.0933 149.741 47.5185 150.007 48.8679C150.315 50.2131 151.034 51.3528 152.009 52.041C152.984 52.7292 154.136 52.9104 155.217 52.5456Z" fill="#877351"/>
<path id="Vector_9" d="M173.486 44.3448C171.558 53.8561 173.283 64.3397 174.602 73.9355C175.922 83.5313 177.985 91.9013 177.444 100.863C177.444 102.264 177.89 103.608 178.683 104.599C179.476 105.59 180.551 106.147 181.673 106.147C182.795 106.147 183.87 105.59 184.663 104.599C185.456 103.608 185.902 102.264 185.902 100.863C185.86 91.5957 184.917 82.3691 183.094 73.386C182.383 68.6092 181.707 63.8746 181.368 59.0556C181.368 56.8574 181.132 54.8284 181.165 52.5034C181.115 50.7504 181.275 48.9978 181.639 47.3039C181.896 45.9694 181.726 44.5626 181.167 43.3813C180.608 42.2 179.703 41.3368 178.644 40.9743C177.585 40.6118 176.454 40.7785 175.491 41.4391C174.529 42.0998 173.809 43.2025 173.486 44.5139V44.3448Z" fill="#877351"/>
<path id="Vector_10" d="M212.29 43.0758C207.52 53.4748 206.471 66.1143 206.065 77.8661C205.659 89.6178 206.065 102.004 206.234 114.051H214.692C214.449 104.366 214.8 94.671 215.741 85.0524C216.519 75.9215 217.399 64.212 221.154 56.9834C221.154 56.7298 221.797 56.0534 221.154 56.9834C221.374 56.6668 221.611 56.3701 221.864 56.0957C222.507 55.5461 221.864 56.0957 221.864 56.0957C222.077 55.8367 222.331 55.6352 222.609 55.5039C221.526 56.0957 222.338 55.5039 222.609 55.5039C222.879 55.5039 222.812 55.7575 222.203 55.5039C223.184 55.7998 222.034 55.0389 222.034 55.5039C222.034 55.9689 222.879 55.1657 222.034 55.5039C222.473 55.5039 223.319 56.7721 222.609 55.9266C223.026 56.4069 223.411 56.9301 223.759 57.4907C223.15 56.5184 224.165 58.2939 224.334 58.5898C224.503 58.8857 225.112 60.323 225.484 61.2107C228.442 69.8064 230.643 78.7787 232.048 87.9692C233.638 96.6773 234.653 105.681 236.75 114.22C238.34 120.73 246.527 117.94 244.903 111.43C240.404 92.9151 239.795 72.8779 232.589 55.4194C229.679 48.3176 223.793 41.7653 217.433 47.2608C211.072 52.7562 209.381 66.9597 208.298 76.3865C206.693 88.864 206.048 101.505 206.37 114.136C206.37 115.537 206.815 116.881 207.608 117.872C208.402 118.863 209.477 119.42 210.599 119.42C211.72 119.42 212.796 118.863 213.589 117.872C214.382 116.881 214.828 115.537 214.828 114.136C214.828 102.765 214.286 91.351 214.591 79.9797C214.861 69.4538 215.437 57.8288 219.733 48.4866C220.298 47.2758 220.456 45.834 220.17 44.4784C219.885 43.1227 219.18 41.9644 218.211 41.2581C217.242 40.5518 216.088 40.3554 215.003 40.7121C213.918 41.0689 212.991 41.9495 212.426 43.1603L212.29 43.0758Z" fill="#877351"/>
<path id="Vector_11" d="M217.094 88.6457C218.802 88.1275 220.529 87.7184 222.27 87.4198C222.27 87.4198 223.116 87.4198 222.541 87.4198C221.966 87.4198 222.71 87.4198 222.811 87.4198L224.198 87.2084H227.142C228.921 87.0402 230.708 87.0402 232.487 87.2084C233.13 87.2084 232.487 87.2084 232.318 87.2084C232.149 87.2084 232.792 87.2084 232.927 87.2084L234.246 87.5466L235.396 87.9271C235.701 87.9271 236.953 88.688 235.803 87.9271C236.783 88.603 237.933 88.7826 239.016 88.4285C240.099 88.0745 241.032 87.2139 241.621 86.0248C242.169 84.8089 242.317 83.3744 242.032 82.025C241.748 80.6757 241.055 79.5177 240.099 78.7962C232.25 74.5689 222.947 75.9216 214.827 78.2889C213.753 78.6642 212.841 79.5544 212.29 80.7657C211.739 81.9771 211.593 83.4114 211.884 84.7566C212.2 86.0974 212.918 87.2336 213.89 87.927C214.861 88.6204 216.009 88.8174 217.094 88.4766V88.6457Z" fill="#877351"/>
<path id="Vector_12" d="M251.466 36.8626C247.779 40.794 248.523 49.5444 248.794 55.0398C249.2 63.8325 250.215 72.6252 251.23 81.3333C252.245 90.0414 252.143 97.101 255.357 105.006C256.698 108.131 258.702 110.735 261.148 112.532C263.595 114.329 266.39 115.25 269.228 115.194C275.554 115.659 282.016 114.137 288.072 117.307C289.05 117.96 290.19 118.127 291.263 117.774C292.336 117.422 293.262 116.575 293.857 115.405C294.413 114.192 294.566 112.753 294.281 111.401C293.996 110.048 293.297 108.89 292.335 108.176C286.812 105.501 280.892 104.347 274.979 104.795C272.726 104.979 270.466 104.979 268.213 104.795C266.687 104.683 265.255 103.834 264.221 102.427C261.075 97.9041 260.838 89.7455 260.229 83.5315C259.349 76.007 258.47 68.5247 257.894 61.0002C257.551 57.084 257.393 53.1458 257.421 49.2063C257.409 47.9896 257.477 46.7737 257.624 45.5708C257.624 45.1904 257.793 43.7954 257.827 44.4294C257.861 45.0635 257.827 44.7676 257.827 44.4294C257.827 44.0913 257.252 45.1481 257.827 44.4294C261.954 40.2022 255.966 32.5932 251.839 36.9895L251.466 36.8626Z" fill="#877351"/>
<path id="Vector_13" d="M338.21 38.85C337.398 62.9031 345.957 85.688 347.852 109.318C347.852 110.72 348.297 112.064 349.09 113.055C349.884 114.046 350.959 114.602 352.081 114.602C353.202 114.602 354.278 114.046 355.071 113.055C355.864 112.064 356.31 110.72 356.31 109.318C355.023 97.4777 353.159 85.7463 350.727 74.1898C348.131 62.6858 346.765 50.8024 346.668 38.85C346.905 32.0864 338.447 32.0864 338.21 38.85Z" fill="#877351"/>
<path id="Vector_14" d="M345.449 39.1878C345.885 38.565 346.348 37.9723 346.836 37.4123C346.836 37.4123 347.817 36.44 347.005 37.2009L347.885 36.4401C348.462 35.9244 349.073 35.4718 349.712 35.0873C350.028 34.8509 350.356 34.6391 350.693 34.4533L351.369 34.0728C352.815 33.4098 354.296 32.873 355.801 32.4664L356.952 32.2128C358.17 31.9169 356.106 32.2128 357.358 32.2128C358.609 32.2128 359.185 32.2128 360.064 32.2128C360.944 32.2128 361.62 32.2128 362.398 32.2128C362.398 32.2128 363.786 32.2128 362.804 32.2128L363.921 32.4664C364.667 32.6411 365.401 32.8812 366.12 33.1851L367.169 33.6501C366.323 33.2273 367.71 33.946 367.879 34.0728C368.048 34.1996 369.131 35.0028 369.774 35.4678C370.416 35.9328 369.232 34.7914 370.078 35.8059L370.89 36.7359L371.668 37.7505C372.446 38.8073 371.296 36.9474 371.905 38.1733C372.514 39.3992 372.852 40.16 373.292 41.1746C373.732 42.1891 373.055 40.2869 373.461 41.6819L373.833 42.95C374.036 43.7109 374.138 44.5564 374.307 45.3596C374.476 46.1627 374.307 44.2182 374.307 45.3596C374.307 45.6977 374.307 46.0782 374.307 46.4586V47.5154C374.307 48.995 374.476 46.9659 374.307 47.8114C374.138 48.6568 374.104 48.8682 373.969 49.3754C373.833 49.8827 373.495 50.6436 373.969 49.3754L373.597 50.2632C373.36 50.8127 373.055 51.3623 372.785 51.9118C373.427 50.6859 372.954 51.6159 372.785 51.9118L372.074 52.8841L370.822 54.2368C371.77 53.2222 370.349 54.6595 370.044 54.8709C368.965 55.751 367.834 56.5282 366.661 57.1959L365.849 57.6609C366.864 57.1113 365.849 57.6609 365.68 57.6609L363.921 58.5063C362.602 59.0559 361.316 59.5208 359.963 59.9436C357.267 60.8285 354.534 61.5201 351.776 62.0149H350.997C349.779 62.2686 351.606 62.0149 350.997 62.0149L349.407 62.5222L346.735 62.8604C345.624 62.9028 344.568 63.4731 343.782 64.455C342.996 65.4369 342.54 66.7565 342.506 68.1444C342.506 69.5459 342.951 70.8899 343.744 71.8808C344.537 72.8718 345.613 73.4285 346.735 73.4285C351.76 72.9102 356.747 71.9211 361.654 70.4694C367.716 68.9877 373.375 65.5976 378.096 60.6199C380.438 57.8222 382.035 54.1925 382.67 50.2226C383.306 46.2528 382.949 42.1349 381.648 38.4269C380.159 33.4858 377.505 29.2258 374.036 26.2101C370.646 23.5289 366.774 21.9453 362.771 21.6024C358.55 21.0419 354.282 21.6656 350.279 23.4281C346.275 25.1905 342.637 28.0473 339.63 31.7901C338.836 32.7823 338.39 34.128 338.39 35.5312C338.39 36.9344 338.836 38.2801 339.63 39.2723C340.424 40.2645 341.501 40.8219 342.624 40.8219C343.747 40.8219 344.824 40.2645 345.618 39.2723L345.449 39.1878Z" fill="#877351"/>
<path id="Vector_15" d="M386.35 44.0051C385.803 54.8331 386.188 65.7032 387.501 76.4281C388.685 88.4758 389.903 103.271 395.789 113.417C396.87 115.595 398.422 117.347 400.266 118.469C402.11 119.591 404.17 120.038 406.209 119.757C408.131 119.344 409.945 118.361 411.499 116.89C413.053 115.419 414.302 113.503 415.141 111.303C419.539 100.608 419.437 86.9963 419.167 75.2445C419.135 64.3474 418.286 53.4781 416.629 42.7793C415.479 36.1425 407.326 38.9747 408.476 45.6115C408.645 46.6261 408.78 47.6406 408.916 48.6551C409.051 49.6697 409.085 50.1347 409.186 50.8956C409.186 49.6274 409.186 52.3329 409.356 52.8401C409.863 57.8706 410.235 62.9432 410.472 68.0159C411.377 79.0829 410.932 90.2575 409.153 101.158C408.916 102.299 408.645 103.398 408.341 104.539C408.036 105.681 408.341 104.92 408.138 105.131C407.935 105.343 407.765 106.103 407.562 106.568C407.391 106.978 407.199 107.373 406.987 107.752C406.581 108.598 407.359 107.287 406.987 108.006L406.311 108.893C405.803 109.485 406.852 108.386 406.074 108.893C405.837 108.893 404.822 109.612 405.837 108.893C405.56 109.056 405.262 109.156 404.958 109.189C406.209 109.189 403.367 108.893 404.653 109.189C403.841 109.189 404.653 109.189 404.653 109.189C404.383 109.057 404.132 108.872 403.909 108.64C403.909 108.64 404.348 109.189 403.909 108.428C403.632 108.097 403.372 107.744 403.131 107.372C403.638 108.133 402.928 107.033 402.792 106.738L402.183 105.427C401.879 104.793 401.202 103.018 401.202 102.975C400.348 100.427 399.658 97.7981 399.139 95.1126C397.915 89.2638 397.011 83.3179 396.432 77.3159C395.007 66.2364 394.575 54.9928 395.146 43.7938C395.146 42.3924 394.701 41.0483 393.908 40.0574C393.115 39.0664 392.039 38.5098 390.918 38.5098C389.796 38.5098 388.72 39.0664 387.927 40.0574C387.134 41.0483 386.689 42.3924 386.689 43.7938L386.35 44.0051Z" fill="#877351"/>
<path id="Vector_16" d="M423.464 40.5827C424.512 64.3398 429.012 87.5896 433.241 110.713C434.425 117.349 442.612 114.517 441.394 107.88C437.334 85.6874 432.902 63.4098 431.921 40.5827C431.617 33.8191 423.159 33.7768 423.464 40.5827Z" fill="#877351"/>
<path id="Vector_17" d="M430.602 42.6118C432.353 40.7422 434.374 39.3074 436.556 38.3846C437.358 38.0497 438.186 37.823 439.026 37.7083H440.717C441.732 37.7083 440.345 37.7083 441.225 37.7083C442.731 37.9856 444.151 38.758 445.34 39.9464C446.529 41.1348 447.444 42.6966 447.991 44.4718C447.991 44.81 447.991 44.7678 447.991 44.4718L448.296 45.4442L448.702 47.1773C448.702 47.7691 448.905 48.3609 448.972 48.9527C448.972 47.9804 448.972 49.7559 448.972 49.925C449.118 52.3177 448.817 54.72 448.093 56.9422C446.115 62.7087 442.665 67.4949 438.281 70.554C437.802 70.9037 437.382 71.3681 437.046 71.9206C436.709 72.4732 436.464 73.1031 436.322 73.7743C436.181 74.4456 436.147 75.145 436.222 75.8327C436.297 76.5205 436.479 77.183 436.759 77.7826C437.039 78.3821 437.411 78.9069 437.853 79.327C438.295 79.747 438.799 80.0541 439.336 80.2308C439.874 80.4074 440.433 80.4502 440.984 80.3565C441.534 80.2628 442.064 80.0346 442.544 79.6848C447.031 76.7442 452.065 75.3576 457.126 75.669C459.234 75.8002 461.292 76.5225 463.147 77.7826C463.877 78.3417 464.5 79.0927 464.973 79.9834C465.446 80.8741 465.758 81.883 465.888 82.9398C465.945 83.5719 465.945 84.21 465.888 84.8421C465.888 85.1803 465.888 86.8712 465.888 86.1103C465.807 86.7248 465.694 87.332 465.55 87.928C465.461 88.4392 465.325 88.9358 465.144 89.4075C464.244 91.8595 462.928 94.0376 461.287 95.7906C457.986 99.6743 453.823 102.223 449.344 103.104C449.953 103.104 448.499 103.104 448.194 103.104C447.597 103.146 446.998 103.146 446.401 103.104C447.281 103.104 445.758 102.892 445.521 102.808C445.28 102.743 445.043 102.658 444.811 102.554C444.236 102.258 445.623 103.146 444.811 102.554C444.507 102.554 443.661 101.455 444.236 102.174C444.061 101.983 443.902 101.771 443.762 101.54C443.086 100.398 444.067 102.047 443.762 101.54C443.619 101.302 443.494 101.047 443.39 100.779C443.39 100.272 443.39 101.371 443.39 100.483C443.173 99.6248 443.004 98.7491 442.883 97.862C442.582 96.5184 441.871 95.376 440.903 94.6804C439.935 93.9847 438.787 93.7914 437.706 94.142C436.638 94.5457 435.734 95.4454 435.18 96.6563C434.627 97.8671 434.465 99.297 434.729 100.652C435.23 104.425 436.794 107.85 439.14 110.308C441.485 112.766 444.457 114.094 447.517 114.052C454.138 113.911 460.517 110.925 465.583 105.598C468.249 103.261 470.453 100.197 472.03 96.6373C473.607 93.0778 474.515 89.1164 474.684 85.0535C474.67 80.574 473.41 76.24 471.12 72.7931C468.831 69.3462 465.654 67.0006 462.133 66.1577C454.051 64.1539 445.662 65.786 438.451 70.7653L442.713 79.8962C451.442 73.2172 458.716 61.7191 457.498 48.2764C457.172 42.8984 455.32 37.8426 452.274 34.0212C449.228 30.1998 445.189 27.8643 440.887 27.436C434.929 27.5044 429.199 30.3022 424.783 35.2987C424.004 36.3007 423.568 37.6428 423.568 39.0399C423.568 40.4369 424.004 41.779 424.783 42.781C425.593 43.7352 426.664 44.2667 427.777 44.2667C428.89 44.2667 429.961 43.7352 430.771 42.781L430.602 42.6118Z" fill="#877351"/>
<path id="Vector_18" d="M474.312 37.1581C473.771 43.933 473.771 50.7585 474.312 57.5335C474.854 65.9879 475.699 74.696 476.816 83.1928C478.44 95.8746 480.774 110.924 492.682 113.079C498.926 113.579 505.19 113.508 511.425 112.868C512.547 112.868 513.622 112.311 514.415 111.32C515.208 110.329 515.654 108.985 515.654 107.584C515.654 106.183 515.208 104.839 514.415 103.848C513.622 102.857 512.547 102.3 511.425 102.3C505.741 102.3 498.637 103.949 493.528 102.596C492.696 102.471 491.892 102.137 491.165 101.613C490.439 101.09 489.804 100.389 489.299 99.5522C487.729 96.4155 486.703 92.9015 486.289 89.2378C484.738 80.2534 483.608 71.1634 482.905 62.0143C482.049 53.7723 481.902 45.4394 482.466 37.1581C482.466 35.7567 482.02 34.4127 481.227 33.4217C480.434 32.4307 479.358 31.874 478.237 31.874C477.126 31.9164 476.07 32.4867 475.284 33.4687C474.498 34.4506 474.042 35.7701 474.008 37.1581H474.312Z" fill="#877351"/>
<path id="Vector_19" d="M511.459 35.4242C512.778 59.159 516.054 82.6603 521.236 105.554C522.826 112.022 531.013 109.274 529.389 102.722C524.375 80.7598 521.2 58.2062 519.917 35.4242C519.883 34.0362 519.426 32.7167 518.64 31.7348C517.854 30.7529 516.798 30.1825 515.688 30.1401C514.569 30.1512 513.498 30.7114 512.707 31.7C511.916 32.6886 511.468 34.0262 511.459 35.4242Z" fill="#877351"/>
<path id="Vector_20" d="M514.3 21.8133C515.422 21.8133 516.498 21.2566 517.291 20.2656C518.084 19.2747 518.529 17.9306 518.529 16.5292C518.529 15.1278 518.084 13.7838 517.291 12.7928C516.498 11.8018 515.422 11.2451 514.3 11.2451C513.179 11.2451 512.103 11.8018 511.31 12.7928C510.517 13.7838 510.071 15.1278 510.071 16.5292C510.071 17.9306 510.517 19.2747 511.31 20.2656C512.103 21.2566 513.179 21.8133 514.3 21.8133Z" fill="#877351"/>
<path id="Vector_21" d="M572.964 32.9319C570.298 26.9929 565.858 22.6153 560.615 20.7574C558.331 20.3653 556.004 20.6721 553.836 21.6514C551.667 22.6307 549.721 24.2532 548.165 26.3796C541.399 34.8341 538.016 48.2768 536.561 60.1976C535.726 66.0847 535.841 72.1212 536.9 77.952C538.169 83.7795 540.304 89.2572 543.192 94.1001C548.368 102.935 555.913 111.643 565.047 112.785C567.332 113.064 569.636 112.567 571.714 111.347C573.792 110.127 575.568 108.228 576.854 105.852C579.819 99.1586 581.004 91.4603 580.237 83.8702C580 77.1066 571.543 77.0643 571.779 83.8702C571.779 85.6034 571.779 87.3788 571.779 89.1119V91.4793V92.5783C571.779 93.5506 571.779 92.5783 571.779 93.0011C571.606 94.255 571.38 95.4966 571.103 96.721C571.103 97.2705 570.798 97.7778 570.629 98.3274C570.46 98.8769 570.968 97.5242 570.629 98.3274C570.496 98.5959 570.383 98.8788 570.291 99.1728C570.088 99.5955 569.851 99.976 569.682 100.399C569.513 100.821 569.682 100.399 569.682 100.145L569.344 100.652C569.09 100.927 568.853 101.223 568.633 101.54C568.329 101.963 569.377 101.033 568.396 101.54C568.396 101.54 567.246 102.301 567.957 101.878C568.667 101.456 567.652 101.878 567.483 101.878C567.314 101.878 566.806 101.878 566.536 102.132C566.265 102.385 567.415 102.132 566.942 102.132C566.468 102.132 566.536 102.132 566.333 102.132H565.352C564.303 102.132 565.758 102.132 565.352 102.132C564.946 102.132 563.863 101.709 563.119 101.413C562.374 101.117 562.408 101.075 562.036 100.906C561.664 100.737 562.747 101.371 562.239 100.906L561.664 100.568C560.886 100.061 560.108 99.5532 559.363 98.9614C558.619 98.3696 557.875 97.7355 557.164 97.1014C557.164 97.1014 556.555 96.4673 557.164 97.1014L556.623 96.5519C556.217 96.1292 555.811 95.7487 555.439 95.2837C553.945 93.6424 552.564 91.8465 551.312 89.9151C551.143 89.7038 550.331 88.3933 550.838 89.1965C550.534 88.7315 550.229 88.2243 549.959 87.717C549.688 87.2097 548.774 85.5188 548.233 84.4197C547.692 83.3206 547.32 82.4329 546.914 81.3761L546.271 79.7275C545.933 78.7975 546.271 79.7275 546.271 79.7275L545.865 78.4593C545.56 77.3602 545.256 76.2189 545.019 75.0775C544.782 73.9362 544.782 73.9362 544.681 73.3866C544.579 72.8371 544.41 71.5266 544.681 72.2875C544.951 73.0484 544.681 71.6957 544.681 71.4421C544.681 71.1884 544.681 70.3852 544.681 69.8357C544.681 68.5253 544.681 67.2148 544.681 65.9466C544.681 64.6785 544.681 63.4525 544.918 62.2266C544.918 62.2266 544.918 61.2121 544.918 62.2266C544.918 61.8885 544.918 61.5926 544.918 61.2544C544.918 60.9162 545.087 59.944 545.188 59.3099C545.594 56.4536 546.136 53.6304 546.812 50.8554C547.117 49.6295 547.455 48.4459 547.793 47.2622L548.368 45.36C548.368 45.36 548.74 44.3032 548.538 44.8527C548.335 45.4023 548.774 44.2186 548.808 44.134C549.673 41.6898 550.703 39.3422 551.887 37.1169L552.699 35.6795C552.124 36.6095 553.105 35.0455 553.308 34.7919C553.95 33.9184 554.628 33.086 555.338 32.2978C554.492 33.2278 555.608 32.0864 555.913 31.8751C556.262 31.5965 556.623 31.3425 556.995 31.1142C557.469 30.776 556.217 31.4101 556.758 31.1142C556.966 31.0487 557.17 30.9639 557.367 30.8605H557.875C558.585 30.5223 557.198 30.8605 557.672 30.8605H558.856C559.533 30.8605 558.856 30.8605 558.552 30.8605L559.363 31.0719H559.905C560.649 31.0719 559.431 30.7337 559.905 31.0719C560.378 31.41 560.751 31.6214 561.157 31.9596L561.732 32.4246C562.645 33.1855 561.36 32.0019 561.732 32.4246C562.104 32.8473 562.611 33.3969 563.051 33.9464C564.003 35.1291 564.853 36.4325 565.588 37.8355C565.868 38.435 566.24 38.9598 566.682 39.3799C567.124 39.7999 567.628 40.107 568.166 40.2837C568.703 40.4603 569.263 40.503 569.813 40.4093C570.363 40.3157 570.894 40.0875 571.373 39.7377C571.853 39.388 572.273 38.9236 572.61 38.371C572.946 37.8185 573.191 37.1887 573.333 36.5174C573.474 35.8462 573.508 35.1467 573.433 34.459C573.358 33.7712 573.176 33.1087 572.896 32.5091L572.964 32.9319Z" fill="#877351"/>
<path id="Vector_22" d="M592.551 30.2679V106.358H601.009C601.009 85.2221 597.288 63.8745 601.009 42.9496C601.372 40.9333 601.858 38.9548 602.464 37.0315C602.784 36.2283 603.146 35.4516 603.547 34.7065C603.107 35.5097 604.866 33.0579 604.088 33.9879C604.333 33.7295 604.606 33.516 604.9 33.3538C603.817 33.7766 604.9 33.3538 605.103 33.3538C605.306 33.3538 605.103 33.3538 605.103 33.3538C605.103 33.3538 604.629 33.3538 604.764 33.3538C604.9 33.3538 604.223 33.3538 604.528 33.3538C604.832 33.3538 604.122 32.9734 604.528 33.3538C605.475 34.2416 604.9 33.3538 605.543 34.9601C609.873 44.091 611.531 56.0964 613.188 66.9604C615.024 78.126 616.323 89.4189 617.079 100.778C617.451 107.542 625.909 107.584 625.537 100.778C624.793 89.4967 623.539 78.2766 621.781 67.1718C619.988 54.9128 618.398 40.6669 612.952 29.8875C612.161 27.7568 610.87 25.977 609.25 24.7841C607.631 23.5913 605.76 23.0417 603.885 23.2084C601.937 23.6296 600.104 24.6501 598.551 26.1777C596.997 27.7054 595.773 29.6921 594.987 31.9588C590.556 43.2879 590.725 57.5337 590.86 70.0041C590.995 82.4744 592.281 94.3952 592.315 106.612C592.315 108.013 592.76 109.357 593.553 110.348C594.346 111.339 595.422 111.896 596.543 111.896C597.665 111.896 598.741 111.339 599.534 110.348C600.327 109.357 600.772 108.013 600.772 106.612V30.5215C600.772 29.1201 600.327 27.7761 599.534 26.7851C598.741 25.7942 597.665 25.2375 596.543 25.2375C595.422 25.2375 594.346 25.7942 593.553 26.7851C592.76 27.7761 592.315 29.1201 592.315 30.5215L592.551 30.2679Z" fill="#877351"/>
<path id="Vector_23" d="M600.671 78.3311C602.273 77.7969 603.9 77.3874 605.543 77.1052H606.118C605.678 77.1052 605.407 77.1052 606.118 77.1052L607.437 76.8938L610.076 76.5979C611.666 76.5979 613.256 76.5979 614.88 76.5979H616.944H617.857C617.857 76.5979 616.707 76.3443 617.282 76.5979H617.756C618.836 76.9405 619.98 76.7494 620.951 76.0644C621.921 75.3794 622.643 74.2532 622.965 72.9203C623.257 71.5696 623.112 70.1296 622.562 68.9115C622.011 67.6934 621.099 66.7949 620.022 66.4103C616.734 65.7486 613.394 65.5925 610.076 65.9453C606.183 66.2125 602.319 66.9486 598.539 68.1435C597.464 68.5195 596.55 69.4077 595.993 70.6171C595.436 71.8266 595.282 73.2607 595.562 74.6111C595.878 75.9519 596.597 77.088 597.568 77.7814C598.539 78.4749 599.687 78.6719 600.772 78.3311H600.671Z" fill="#877351"/>
<path id="Vector_24" d="M628.412 35.552C637.107 35.3406 645.734 33.4384 654.394 32.7197C658.898 32.2805 663.423 32.2805 667.927 32.7197C669.486 32.9151 671.027 33.2974 672.528 33.8611L673.272 34.1993L674.152 34.8334C674.964 35.3829 674.152 34.8334 674.152 34.8334L674.862 35.7634C675.66 36.7469 676.736 37.2984 677.856 37.2984C678.977 37.2984 680.052 36.7469 680.85 35.7634C681.606 34.7467 682.027 33.4102 682.027 32.0223C682.027 30.6343 681.606 29.2978 680.85 28.2811C678.235 24.9421 674.734 22.9125 671.005 22.5744C666.083 21.7582 661.106 21.574 656.154 22.0248C646.884 22.6589 637.648 24.7726 628.345 25.0262C627.223 25.0262 626.147 25.5828 625.354 26.5738C624.561 27.5648 624.116 28.9088 624.116 30.3102C624.116 31.7117 624.561 33.0557 625.354 34.0466C626.147 35.0376 627.223 35.5943 628.345 35.5943L628.412 35.552Z" fill="#877351"/>
<path id="Vector_25" d="M644.821 28.703C644.584 51.0652 647.494 73.3005 647.561 95.7049C647.561 97.1064 648.007 98.4504 648.8 99.4413C649.593 100.432 650.669 100.989 651.79 100.989C652.912 100.989 653.987 100.432 654.78 99.4413C655.573 98.4504 656.019 97.1064 656.019 95.7049C656.019 73.3005 653.042 51.0652 653.279 28.703C653.279 27.3016 652.833 25.9576 652.04 24.9666C651.247 23.9757 650.172 23.4189 649.05 23.4189C647.928 23.4189 646.853 23.9757 646.06 24.9666C645.267 25.9576 644.821 27.3016 644.821 28.703Z" fill="#877351"/>
<path id="Vector_26" d="M690.188 30.2679C690.188 53.2219 693.774 76.0068 692.928 99.003C692.691 105.809 701.149 105.767 701.386 99.003C702.232 76.0068 698.713 53.2219 698.645 30.2679C698.645 28.8665 698.2 27.5225 697.407 26.5316C696.614 25.5406 695.538 24.9839 694.416 24.9839C693.295 24.9839 692.219 25.5406 691.426 26.5316C690.633 27.5225 690.188 28.8665 690.188 30.2679Z" fill="#877351"/>
<path id="Vector_27" d="M697.259 6.214V5.28407C697.259 3.88264 696.813 2.53857 696.02 1.54761C695.227 0.55666 694.152 0 693.03 0C691.909 0 690.833 0.55666 690.04 1.54761C689.247 2.53857 688.801 3.88264 688.801 5.28407V6.214C688.801 7.61542 689.247 8.9595 690.04 9.95045C690.833 10.9414 691.909 11.4981 693.03 11.4981C694.152 11.4981 695.227 10.9414 696.02 9.95045C696.813 8.9595 697.259 7.61542 697.259 6.214V5.28407C697.259 3.88264 696.813 2.53857 696.02 1.54761C695.227 0.55666 694.152 0 693.03 0C691.909 0 690.833 0.55666 690.04 1.54761C689.247 2.53857 688.801 3.88264 688.801 5.28407V6.214C688.801 7.61542 689.247 8.9595 690.04 9.95045C690.833 10.9414 691.909 11.4981 693.03 11.4981C694.152 11.4981 695.227 10.9414 696.02 9.95045C696.813 8.9595 697.259 7.61542 697.259 6.214Z" fill="#877351"/>
<path id="Vector_28" d="M735.623 36.8201C736.076 34.7486 736.18 32.5825 735.93 30.4581C735.679 28.3338 735.08 26.2972 734.168 24.4765C733.298 23.1089 732.166 22.0362 730.878 21.3567C729.589 20.6772 728.185 20.4128 726.793 20.5875C723.837 21.1023 721.006 22.4119 718.495 24.4262C715.983 26.4404 713.851 29.1113 712.246 32.2547C708.897 40.0081 707.583 48.8808 708.491 57.6181C708.999 67.5111 711.314 77.1272 715.257 85.7294C719.79 95.4097 732.172 109.233 741.036 98.7493C743.833 94.9432 745.608 90.1395 746.111 85.0107C746.956 78.5852 747.16 72.0537 746.72 65.5654C745.976 52.8836 744.183 36.9469 737.416 26.6747C736.619 25.6912 735.543 25.1397 734.422 25.1397C733.301 25.1397 732.226 25.6912 731.428 26.6747C730.657 27.6818 730.226 29.0219 730.226 30.4158C730.226 31.8097 730.657 33.1499 731.428 34.1569C731.868 34.8333 730.988 33.2269 731.428 34.1569C731.597 34.4951 731.8 34.8333 731.969 35.2137C732.139 35.5942 732.747 36.9046 733.086 37.7501L733.593 39.1028C733.898 39.9906 733.593 39.1028 733.593 39.1028C733.698 39.3771 733.788 39.6595 733.864 39.9483C734.202 41.0474 734.541 42.1887 734.845 43.3301C736.103 48.3445 737.042 53.4755 737.653 58.6749C737.653 59.4358 737.856 60.4081 737.958 61.8031C738.059 63.1981 738.194 64.6777 738.262 66.0304C738.431 68.7781 738.465 71.5681 738.431 74.4849C738.508 78.7932 737.982 83.0851 736.875 87.1666C736.875 87.4202 736.435 88.6461 736.638 88.012C736.841 87.378 736.435 88.6039 736.334 88.773L735.826 89.872C735.744 90.0712 735.642 90.256 735.522 90.4216C735.251 91.0134 736.063 89.6606 735.725 90.1679C735.386 90.6752 735.285 90.7175 735.116 91.0134C734.947 91.3093 735.116 91.0134 735.116 91.0134L734.405 91.5629C733.965 91.9011 735.251 91.2247 734.405 91.5629C733.559 91.9011 734.845 91.5629 734.405 91.5629H733.492C733.492 91.5629 734.236 91.8588 733.492 91.5629L732.274 91.0979C731.597 90.8443 732.747 91.4784 731.834 91.0979C731.429 90.8556 731.034 90.5875 730.65 90.2948C729.752 89.6553 728.893 88.9347 728.079 88.1388C719.35 79.3885 716.373 61.4649 717.523 48.1068C717.561 45.1372 718.171 42.2228 719.302 39.6104C720.433 36.9981 722.051 34.7648 724.019 33.1001C724.798 32.435 725.654 31.9218 726.556 31.5783C726.827 31.5783 728.214 31.1556 727.301 31.2402H728.011C728.62 31.2402 728.011 31.2402 728.011 31.2402C728.213 31.2074 728.418 31.2074 728.62 31.2402C728.316 31.2402 728.113 30.8174 728.62 31.2402C727.774 30.2256 728.417 31.0288 728.451 31.2402C728.113 30.3947 728.248 31.4515 728.451 30.9865C728.469 31.2255 728.469 31.4662 728.451 31.7052C728.535 32.519 728.535 33.343 728.451 34.1569C728.185 35.5063 728.342 36.9315 728.889 38.1414C729.436 39.3513 730.332 40.2547 731.394 40.6669C732.479 41.0187 733.632 40.8267 734.605 40.1317C735.579 39.4366 736.296 38.2937 736.604 36.9469L735.623 36.8201Z" fill="#877351"/>
<path id="Vector_29" d="M753.587 26.5474C759.643 52.2068 757.545 79.4725 761.842 105.555C762.925 112.191 771.078 109.401 769.995 102.722C765.699 76.6403 767.796 49.4591 761.741 23.7152C761.44 22.3642 760.722 21.2177 759.745 20.528C758.768 19.8383 757.612 19.6619 756.531 20.0374C755.45 20.413 754.532 21.3099 753.98 22.5307C753.428 23.7516 753.287 25.1965 753.587 26.5474Z" fill="#877351"/>
<path id="Vector_30" d="M756.767 26.0821C769.048 51.4456 777.066 81.0364 794.624 102.173C795.155 102.803 795.806 103.254 796.516 103.482C797.226 103.71 797.97 103.707 798.679 103.474C799.387 103.241 800.036 102.786 800.564 102.151C801.092 101.516 801.481 100.723 801.695 99.8476C805.078 85.8977 804.097 70.7219 802.778 56.4761C800.867 41.5949 799.614 26.5937 799.022 11.5404C799.022 10.139 798.577 8.79498 797.784 7.80402C796.991 6.81307 795.915 6.25635 794.794 6.25635C793.672 6.25635 792.596 6.81307 791.803 7.80402C791.01 8.79498 790.565 10.139 790.565 11.5404C791.111 26.1279 792.319 40.6648 794.184 55.0811C795.504 68.8196 796.857 83.615 793.542 97.0153L800.612 94.6903C783.697 74.4418 775.95 45.4429 764.041 20.9249C763.432 19.8362 762.517 19.074 761.479 18.7902C760.44 18.5064 759.354 18.7218 758.437 19.3934C757.52 20.065 756.839 21.1437 756.529 22.4145C756.22 23.6854 756.305 25.0552 756.767 26.2512V26.0821Z" fill="#877351"/>
</g>
</svg>
