<svg width="303" height="111" viewBox="0 0 303 111" fill="none" xmlns="http://www.w3.org/2000/svg">
<g id="work">
<path id="Vector" d="M0 21.9412C6.52068 47.8697 5.86387 74.7664 12.8537 100.611C13.0919 101.385 13.5251 102.101 14.1195 102.702C14.7139 103.304 15.4538 103.775 16.2827 104.079C17.1115 104.384 18.0071 104.515 18.9008 104.461C19.7946 104.406 20.6628 104.169 21.4385 103.768C30.0702 98.001 35.5119 90.0035 42.5486 82.9321L35.418 83.7319C47.3804 89.9614 54.1826 101.705 64.55 109.45C65.1996 110.024 65.9863 110.458 66.8507 110.719C67.715 110.98 68.6341 111.06 69.5384 110.955C70.4427 110.849 71.3085 110.56 72.0698 110.11C72.8311 109.66 73.468 109.06 73.9323 108.356C83.5961 95.728 80.6407 77.1235 78.389 62.9807C76.1372 48.8378 71.5399 33.8532 69.0067 19.1631C67.9277 12.4706 56.6219 15.2907 57.7009 21.9412C59.9995 35.5789 64.1747 48.922 66.5202 62.5597C67.9665 70.249 68.6415 78.039 68.5374 85.8364C68.8484 91.8601 67.2198 97.8366 63.8463 103.052L73.2285 102C61.7822 93.5813 54.7456 81.4589 41.7043 74.64C40.5808 74.0743 39.2832 73.8506 38.0061 74.0024C36.729 74.1542 35.5411 74.6733 34.6206 75.4819C28.3814 81.7536 23.5026 89.5826 15.8561 94.6757L24.4879 97.7905C17.4981 71.9462 18.1546 45.0496 11.6339 19.1631C9.99202 12.5547 -1.31348 15.3328 0.328414 21.9412H0Z" fill="#877351"/>
<path id="Vector_2" d="M130.46 13.6071C127.265 10.8945 123.134 9.24087 118.75 8.91944C114.366 8.59802 109.991 9.62796 106.347 11.8392C99.1308 16.0506 93.9407 22.5404 91.8048 30.0229C90.4954 36.8023 90.6228 43.7426 92.1802 50.4796C93.3841 57.5725 95.3798 64.5387 98.1377 71.273C102.829 82.3011 112.211 96.5281 127.645 95.2653C144.486 93.75 149.553 76.745 150.819 64.1595C152.508 46.6493 149.693 26.9503 135.854 13.6493C130.694 8.68242 122.391 16.1326 127.551 21.0573C136.933 30.1492 139.467 43.324 139.513 55.278C139.747 61.5629 138.957 67.8447 137.168 73.9247C136.165 77.8731 133.64 81.3766 130.038 83.8163L128.489 84.5739C129.568 84.153 127.832 84.5739 127.739 84.5739L126.66 84.7845C127.926 84.7845 126.144 84.7845 126.003 84.7845C124.212 84.7472 122.47 84.2506 120.984 83.3534C116.521 80.4014 113.061 76.3936 110.992 71.7781C106.016 61.8066 103.182 51.0817 102.641 40.1671C102.001 34.7777 103.679 29.3723 107.332 25.0561C110.804 20.8469 116.996 16.8903 122.157 20.8469C127.317 24.8036 136.23 17.9005 130.46 13.4387V13.6071Z" fill="#877351"/>
<path id="Vector_3" d="M167.473 15.5015C178.215 40.4199 178.168 67.6953 187.269 93.0346C189.568 99.4325 200.874 96.6966 198.575 90.2145C189.521 64.9594 189.521 37.5997 178.778 12.6813C176.057 6.45172 164.705 9.14566 167.473 15.5015Z" fill="#877351"/>
<path id="Vector_4" d="M182.672 16.1749C184.496 14.0941 186.78 12.3745 189.381 11.1239C190.125 10.824 190.916 10.6253 191.726 10.5346C190.6 10.5346 193.931 10.5346 192.852 10.5346L194.541 10.9134C193.556 10.6188 194.541 10.9135 194.916 11.1239C195.654 11.4543 196.333 11.8796 196.933 12.3866C198.588 13.7561 199.955 15.3815 200.968 17.1852C203.47 21.2531 205.026 25.7342 205.542 30.3574C206.058 34.9805 205.523 39.6494 203.97 44.0818C203.282 46.0048 201.939 47.6854 200.129 48.8862C198.319 50.0871 196.135 50.7475 193.884 50.7744V61.2973C212.039 59.8662 216.871 83.0167 221.468 94.5919C224.001 100.948 235.307 98.2118 232.773 91.8139C226.253 75.3981 218.982 48.796 193.884 50.7744C186.472 51.3636 186.238 61.592 193.884 61.2973C210.819 60.6659 217.997 46.5231 217.34 32.8853C216.777 21.1838 211.288 4.43139 197.121 0.643125C188.255 -1.75611 179.999 2.91601 174.322 8.72468C169.35 13.7757 177.606 21.3523 182.625 16.1329L182.672 16.1749Z" fill="#877351"/>
<path id="Vector_5" d="M237.652 12.2601C245.674 35.6631 249.474 59.9501 255.291 83.8162C255.636 84.9213 256.371 85.8962 257.386 86.5944C258.401 87.2927 259.641 87.6766 260.92 87.6887C262.334 87.7687 263.74 87.4507 264.943 86.7791C266.145 86.1076 267.084 85.1159 267.628 83.9425C268.035 82.6184 268.137 81.2337 267.927 79.8731C267.718 78.5125 267.201 77.2045 266.409 76.0292C265.619 74.8235 264.327 73.949 262.818 73.5977C261.31 73.2464 259.707 73.4473 258.364 74.1562C257.02 74.8651 256.045 76.0238 255.653 77.3776C255.262 78.7314 255.486 80.1693 256.276 81.3749C256.651 82.0905 256.698 82.301 256.276 81.9222L257.073 79.2703L256.792 79.607L260.31 77.2078H260.78L266.456 81.0381C260.639 57.1721 256.839 32.8851 248.817 9.482C246.612 3.04195 235.307 5.77798 237.511 12.3022L237.652 12.2601Z" fill="#877351"/>
<path id="Vector_6" d="M285.97 5.52506C273.551 17.8688 262.403 31.1963 252.663 45.344C251.879 46.5497 251.661 47.9853 252.057 49.3351C252.453 50.6849 253.43 51.8384 254.774 52.5417C256.118 53.245 257.718 53.4405 259.222 53.0853C260.727 52.7301 262.012 51.8532 262.796 50.6475C272.006 37.2672 282.541 24.6589 294.273 12.9754C295.343 11.9726 295.94 10.6382 295.94 9.25023C295.94 7.86227 295.343 6.52781 294.273 5.52506C293.167 4.54569 291.676 3.99658 290.122 3.99658C288.568 3.99658 287.076 4.54569 285.97 5.52506Z" fill="#877351"/>
<path id="Vector_7" d="M265.283 37.8095C269.505 46.5224 273.962 55.1091 278.747 63.5696C281.139 67.7788 283.438 71.9879 286.206 76.1971C288.973 80.4063 290.897 85.289 295.588 86.6359C296.456 86.8491 297.367 86.8802 298.25 86.7267C299.134 86.5733 299.966 86.2395 300.683 85.7511C301.399 85.2628 301.981 84.633 302.383 83.9105C302.785 83.1881 302.996 82.3923 303 81.5849C302.853 80.4187 302.455 79.2893 301.827 78.2596L301.17 77.3337C300.889 76.8707 300.701 75.9446 301.17 77.3337C300.754 75.9885 299.758 74.8469 298.403 74.1601C297.048 73.4733 295.445 73.2976 293.946 73.6716C292.447 74.0456 291.175 74.9386 290.409 76.1542C289.644 77.3698 289.448 78.8086 289.865 80.1538C290.486 81.4941 291.223 82.7889 292.07 84.0262L291.272 81.3744L298.731 76.2814L301.311 77.6282C300.134 76.554 299.181 75.2996 298.496 73.9241L294.837 68.1576C292.445 64.201 290.146 60.2444 287.894 56.2457C283.532 48.4166 279.403 40.4191 275.51 32.3796C275.122 31.7826 274.607 31.2601 273.993 30.8419C273.38 30.4236 272.681 30.1178 271.936 29.9419C271.191 29.766 270.415 29.7234 269.652 29.8167C268.889 29.91 268.153 30.1373 267.488 30.4855C266.823 30.8338 266.24 31.2962 265.774 31.8464C265.308 32.3966 264.967 33.0236 264.771 33.692C264.575 34.3604 264.528 35.0569 264.632 35.7417C264.736 36.4265 264.989 37.0862 265.377 37.6832L265.283 37.8095Z" fill="#877351"/>
</g>
</svg>
